<svg width="1363" height="163" viewBox="0 0 1363 163" fill="none" xmlns="http://www.w3.org/2000/svg">
<path d="M0 15C0 6.71573 6.71573 0 15 0H37V163H15C6.71573 163 0 156.284 0 148V15Z" fill="#424242"/>
<rect width="1097" height="163" transform="translate(37)" fill="#F0F0F0"/>
<path d="M101.906 53.9219L94.3945 51.2383V48.0859L104.602 52.375V54.6367L101.906 53.9219ZM94.3945 56.1719L101.918 53.4297L104.602 52.7852V55.0352L94.3945 59.3242V56.1719ZM121.781 56.5352C121.781 56.2305 121.734 55.957 121.641 55.7148C121.555 55.4648 121.391 55.2383 121.148 55.0352C120.906 54.8242 120.566 54.6172 120.129 54.4141C119.691 54.2109 119.125 54 118.43 53.7812C117.656 53.5312 116.922 53.25 116.227 52.9375C115.539 52.625 114.93 52.2617 114.398 51.8477C113.875 51.4258 113.461 50.9375 113.156 50.3828C112.859 49.8281 112.711 49.1836 112.711 48.4492C112.711 47.7383 112.867 47.0938 113.18 46.5156C113.492 45.9297 113.93 45.4297 114.492 45.0156C115.055 44.5938 115.719 44.2695 116.484 44.043C117.258 43.8164 118.105 43.7031 119.027 43.7031C120.285 43.7031 121.383 43.9297 122.32 44.3828C123.258 44.8359 123.984 45.457 124.5 46.2461C125.023 47.0352 125.285 47.9375 125.285 48.9531H121.793C121.793 48.4531 121.688 48.0156 121.477 47.6406C121.273 47.2578 120.961 46.957 120.539 46.7383C120.125 46.5195 119.602 46.4102 118.969 46.4102C118.359 46.4102 117.852 46.5039 117.445 46.6914C117.039 46.8711 116.734 47.1172 116.531 47.4297C116.328 47.7344 116.227 48.0781 116.227 48.4609C116.227 48.75 116.297 49.0117 116.438 49.2461C116.586 49.4805 116.805 49.6992 117.094 49.9023C117.383 50.1055 117.738 50.2969 118.16 50.4766C118.582 50.6562 119.07 50.832 119.625 51.0039C120.555 51.2852 121.371 51.6016 122.074 51.9531C122.785 52.3047 123.379 52.6992 123.855 53.1367C124.332 53.5742 124.691 54.0703 124.934 54.625C125.176 55.1797 125.297 55.8086 125.297 56.5117C125.297 57.2539 125.152 57.918 124.863 58.5039C124.574 59.0898 124.156 59.5859 123.609 59.9922C123.062 60.3984 122.41 60.707 121.652 60.918C120.895 61.1289 120.047 61.2344 119.109 61.2344C118.266 61.2344 117.434 61.125 116.613 60.9062C115.793 60.6797 115.047 60.3398 114.375 59.8867C113.711 59.4336 113.18 58.8555 112.781 58.1523C112.383 57.4492 112.184 56.6172 112.184 55.6562H115.711C115.711 56.1875 115.793 56.6367 115.957 57.0039C116.121 57.3711 116.352 57.668 116.648 57.8945C116.953 58.1211 117.312 58.2852 117.727 58.3867C118.148 58.4883 118.609 58.5391 119.109 58.5391C119.719 58.5391 120.219 58.4531 120.609 58.2812C121.008 58.1094 121.301 57.8711 121.488 57.5664C121.684 57.2617 121.781 56.918 121.781 56.5352ZM131.039 48.3203V61H127.652V48.3203H131.039ZM127.441 45.0156C127.441 44.5234 127.613 44.1172 127.957 43.7969C128.301 43.4766 128.762 43.3164 129.34 43.3164C129.91 43.3164 130.367 43.4766 130.711 43.7969C131.062 44.1172 131.238 44.5234 131.238 45.0156C131.238 45.5078 131.062 45.9141 130.711 46.2344C130.367 46.5547 129.91 46.7148 129.34 46.7148C128.762 46.7148 128.301 46.5547 127.957 46.2344C127.613 45.9141 127.441 45.5078 127.441 45.0156ZM141.855 48.3203H144.914V60.5781C144.914 61.7344 144.656 62.7148 144.141 63.5195C143.633 64.332 142.922 64.9453 142.008 65.3594C141.094 65.7812 140.031 65.9922 138.82 65.9922C138.289 65.9922 137.727 65.9219 137.133 65.7812C136.547 65.6406 135.984 65.4219 135.445 65.125C134.914 64.8281 134.469 64.4531 134.109 64L135.598 62.0078C135.988 62.4609 136.441 62.8125 136.957 63.0625C137.473 63.3203 138.043 63.4492 138.668 63.4492C139.277 63.4492 139.793 63.3359 140.215 63.1094C140.637 62.8906 140.961 62.5664 141.188 62.1367C141.414 61.7148 141.527 61.2031 141.527 60.6016V51.25L141.855 48.3203ZM133.324 54.8125V54.5664C133.324 53.5977 133.441 52.7188 133.676 51.9297C133.918 51.1328 134.258 50.4492 134.695 49.8789C135.141 49.3086 135.68 48.8672 136.312 48.5547C136.945 48.2422 137.66 48.0859 138.457 48.0859C139.301 48.0859 140.008 48.2422 140.578 48.5547C141.148 48.8672 141.617 49.3125 141.984 49.8906C142.352 50.4609 142.637 51.1367 142.84 51.918C143.051 52.6914 143.215 53.5391 143.332 54.4609V55C143.215 55.8828 143.039 56.7031 142.805 57.4609C142.57 58.2188 142.262 58.8828 141.879 59.4531C141.496 60.0156 141.02 60.4531 140.449 60.7656C139.887 61.0781 139.215 61.2344 138.434 61.2344C137.652 61.2344 136.945 61.0742 136.312 60.7539C135.688 60.4336 135.152 59.9844 134.707 59.4062C134.262 58.8281 133.918 58.1484 133.676 57.3672C133.441 56.5859 133.324 55.7344 133.324 54.8125ZM136.699 54.5664V54.8125C136.699 55.3359 136.75 55.8242 136.852 56.2773C136.953 56.7305 137.109 57.1328 137.32 57.4844C137.539 57.8281 137.809 58.0977 138.129 58.293C138.457 58.4805 138.844 58.5742 139.289 58.5742C139.906 58.5742 140.41 58.4453 140.801 58.1875C141.191 57.9219 141.484 57.5586 141.68 57.0977C141.875 56.6367 141.988 56.1055 142.02 55.5039V53.9688C142.004 53.4766 141.938 53.0352 141.82 52.6445C141.703 52.2461 141.539 51.9062 141.328 51.625C141.117 51.3438 140.844 51.125 140.508 50.9688C140.172 50.8125 139.773 50.7344 139.312 50.7344C138.867 50.7344 138.48 50.8359 138.152 51.0391C137.832 51.2344 137.562 51.5039 137.344 51.8477C137.133 52.1914 136.973 52.5977 136.863 53.0664C136.754 53.5273 136.699 54.0273 136.699 54.5664ZM150.844 51.0273V61H147.469V48.3203H150.633L150.844 51.0273ZM150.352 54.2148H149.438C149.438 53.2773 149.559 52.4336 149.801 51.6836C150.043 50.9258 150.383 50.2812 150.82 49.75C151.258 49.2109 151.777 48.8008 152.379 48.5195C152.988 48.2305 153.668 48.0859 154.418 48.0859C155.012 48.0859 155.555 48.1719 156.047 48.3438C156.539 48.5156 156.961 48.7891 157.312 49.1641C157.672 49.5391 157.945 50.0352 158.133 50.6523C158.328 51.2695 158.426 52.0234 158.426 52.9141V61H155.027V52.9023C155.027 52.3398 154.949 51.9023 154.793 51.5898C154.637 51.2773 154.406 51.0586 154.102 50.9336C153.805 50.8008 153.438 50.7344 153 50.7344C152.547 50.7344 152.152 50.8242 151.816 51.0039C151.488 51.1836 151.215 51.4336 150.996 51.7539C150.785 52.0664 150.625 52.4336 150.516 52.8555C150.406 53.2773 150.352 53.7305 150.352 54.2148ZM170.086 56.5352C170.086 56.2305 170.039 55.957 169.945 55.7148C169.859 55.4648 169.695 55.2383 169.453 55.0352C169.211 54.8242 168.871 54.6172 168.434 54.4141C167.996 54.2109 167.43 54 166.734 53.7812C165.961 53.5312 165.227 53.25 164.531 52.9375C163.844 52.625 163.234 52.2617 162.703 51.8477C162.18 51.4258 161.766 50.9375 161.461 50.3828C161.164 49.8281 161.016 49.1836 161.016 48.4492C161.016 47.7383 161.172 47.0938 161.484 46.5156C161.797 45.9297 162.234 45.4297 162.797 45.0156C163.359 44.5938 164.023 44.2695 164.789 44.043C165.562 43.8164 166.41 43.7031 167.332 43.7031C168.59 43.7031 169.688 43.9297 170.625 44.3828C171.562 44.8359 172.289 45.457 172.805 46.2461C173.328 47.0352 173.59 47.9375 173.59 48.9531H170.098C170.098 48.4531 169.992 48.0156 169.781 47.6406C169.578 47.2578 169.266 46.957 168.844 46.7383C168.43 46.5195 167.906 46.4102 167.273 46.4102C166.664 46.4102 166.156 46.5039 165.75 46.6914C165.344 46.8711 165.039 47.1172 164.836 47.4297C164.633 47.7344 164.531 48.0781 164.531 48.4609C164.531 48.75 164.602 49.0117 164.742 49.2461C164.891 49.4805 165.109 49.6992 165.398 49.9023C165.688 50.1055 166.043 50.2969 166.465 50.4766C166.887 50.6562 167.375 50.832 167.93 51.0039C168.859 51.2852 169.676 51.6016 170.379 51.9531C171.09 52.3047 171.684 52.6992 172.16 53.1367C172.637 53.5742 172.996 54.0703 173.238 54.625C173.48 55.1797 173.602 55.8086 173.602 56.5117C173.602 57.2539 173.457 57.918 173.168 58.5039C172.879 59.0898 172.461 59.5859 171.914 59.9922C171.367 60.3984 170.715 60.707 169.957 60.918C169.199 61.1289 168.352 61.2344 167.414 61.2344C166.57 61.2344 165.738 61.125 164.918 60.9062C164.098 60.6797 163.352 60.3398 162.68 59.8867C162.016 59.4336 161.484 58.8555 161.086 58.1523C160.688 57.4492 160.488 56.6172 160.488 55.6562H164.016C164.016 56.1875 164.098 56.6367 164.262 57.0039C164.426 57.3711 164.656 57.668 164.953 57.8945C165.258 58.1211 165.617 58.2852 166.031 58.3867C166.453 58.4883 166.914 58.5391 167.414 58.5391C168.023 58.5391 168.523 58.4531 168.914 58.2812C169.312 58.1094 169.605 57.8711 169.793 57.5664C169.988 57.2617 170.086 56.918 170.086 56.5352ZM179.156 50.7578V65.875H175.781V48.3203H178.91L179.156 50.7578ZM187.184 54.5195V54.7656C187.184 55.6875 187.074 56.543 186.855 57.332C186.645 58.1211 186.332 58.8086 185.918 59.3945C185.504 59.9727 184.988 60.4258 184.371 60.7539C183.762 61.0742 183.059 61.2344 182.262 61.2344C181.488 61.2344 180.816 61.0781 180.246 60.7656C179.676 60.4531 179.195 60.0156 178.805 59.4531C178.422 58.8828 178.113 58.2227 177.879 57.4727C177.645 56.7227 177.465 55.918 177.34 55.0586V54.4141C177.465 53.4922 177.645 52.6484 177.879 51.8828C178.113 51.1094 178.422 50.4414 178.805 49.8789C179.195 49.3086 179.672 48.8672 180.234 48.5547C180.805 48.2422 181.473 48.0859 182.238 48.0859C183.043 48.0859 183.75 48.2383 184.359 48.543C184.977 48.8477 185.492 49.2852 185.906 49.8555C186.328 50.4258 186.645 51.1055 186.855 51.8945C187.074 52.6836 187.184 53.5586 187.184 54.5195ZM183.797 54.7656V54.5195C183.797 53.9805 183.75 53.4844 183.656 53.0312C183.57 52.5703 183.43 52.168 183.234 51.8242C183.047 51.4805 182.797 51.2148 182.484 51.0273C182.18 50.832 181.809 50.7344 181.371 50.7344C180.91 50.7344 180.516 50.8086 180.188 50.957C179.867 51.1055 179.605 51.3203 179.402 51.6016C179.199 51.8828 179.047 52.2188 178.945 52.6094C178.844 53 178.781 53.4414 178.758 53.9336V55.5625C178.797 56.1406 178.906 56.6602 179.086 57.1211C179.266 57.5742 179.543 57.9336 179.918 58.1992C180.293 58.4648 180.785 58.5977 181.395 58.5977C181.84 58.5977 182.215 58.5 182.52 58.3047C182.824 58.1016 183.07 57.8242 183.258 57.4727C183.453 57.1211 183.59 56.7148 183.668 56.2539C183.754 55.793 183.797 55.2969 183.797 54.7656ZM195.117 61.2344C194.133 61.2344 193.25 61.0781 192.469 60.7656C191.688 60.4453 191.023 60.0039 190.477 59.4414C189.938 58.8789 189.523 58.2266 189.234 57.4844C188.945 56.7344 188.801 55.9375 188.801 55.0938V54.625C188.801 53.6641 188.938 52.7852 189.211 51.9883C189.484 51.1914 189.875 50.5 190.383 49.9141C190.898 49.3281 191.523 48.8789 192.258 48.5664C192.992 48.2461 193.82 48.0859 194.742 48.0859C195.641 48.0859 196.438 48.2344 197.133 48.5312C197.828 48.8281 198.41 49.25 198.879 49.7969C199.355 50.3438 199.715 51 199.957 51.7656C200.199 52.5234 200.32 53.3672 200.32 54.2969V55.7031H190.242V53.4531H197.004V53.1953C197.004 52.7266 196.918 52.3086 196.746 51.9414C196.582 51.5664 196.332 51.2695 195.996 51.0508C195.66 50.832 195.23 50.7227 194.707 50.7227C194.262 50.7227 193.879 50.8203 193.559 51.0156C193.238 51.2109 192.977 51.4844 192.773 51.8359C192.578 52.1875 192.43 52.6016 192.328 53.0781C192.234 53.5469 192.188 54.0625 192.188 54.625V55.0938C192.188 55.6016 192.258 56.0703 192.398 56.5C192.547 56.9297 192.754 57.3008 193.02 57.6133C193.293 57.9258 193.621 58.168 194.004 58.3398C194.395 58.5117 194.836 58.5977 195.328 58.5977C195.938 58.5977 196.504 58.4805 197.027 58.2461C197.559 58.0039 198.016 57.6406 198.398 57.1562L200.039 58.9375C199.773 59.3203 199.41 59.6875 198.949 60.0391C198.496 60.3906 197.949 60.6797 197.309 60.9062C196.668 61.125 195.938 61.2344 195.117 61.2344ZM209.086 58.1406V52.4922C209.086 52.0859 209.02 51.7383 208.887 51.4492C208.754 51.1523 208.547 50.9219 208.266 50.7578C207.992 50.5938 207.637 50.5117 207.199 50.5117C206.824 50.5117 206.5 50.5781 206.227 50.7109C205.953 50.8359 205.742 51.0195 205.594 51.2617C205.445 51.4961 205.371 51.7734 205.371 52.0938H201.996C201.996 51.5547 202.121 51.043 202.371 50.5586C202.621 50.0742 202.984 49.6484 203.461 49.2812C203.938 48.9062 204.504 48.6133 205.16 48.4023C205.824 48.1914 206.566 48.0859 207.387 48.0859C208.371 48.0859 209.246 48.25 210.012 48.5781C210.777 48.9062 211.379 49.3984 211.816 50.0547C212.262 50.7109 212.484 51.5312 212.484 52.5156V57.9414C212.484 58.6367 212.527 59.207 212.613 59.6523C212.699 60.0898 212.824 60.4727 212.988 60.8008V61H209.578C209.414 60.6562 209.289 60.2266 209.203 59.7109C209.125 59.1875 209.086 58.6641 209.086 58.1406ZM209.531 53.2773L209.555 55.1875H207.668C207.223 55.1875 206.836 55.2383 206.508 55.3398C206.18 55.4414 205.91 55.5859 205.699 55.7734C205.488 55.9531 205.332 56.1641 205.23 56.4062C205.137 56.6484 205.09 56.9141 205.09 57.2031C205.09 57.4922 205.156 57.7539 205.289 57.9883C205.422 58.2148 205.613 58.3945 205.863 58.5273C206.113 58.6523 206.406 58.7148 206.742 58.7148C207.25 58.7148 207.691 58.6133 208.066 58.4102C208.441 58.207 208.73 57.957 208.934 57.6602C209.145 57.3633 209.254 57.082 209.262 56.8164L210.152 58.2461C210.027 58.5664 209.855 58.8984 209.637 59.2422C209.426 59.5859 209.156 59.9102 208.828 60.2148C208.5 60.5117 208.105 60.7578 207.645 60.9531C207.184 61.1406 206.637 61.2344 206.004 61.2344C205.199 61.2344 204.469 61.0742 203.812 60.7539C203.164 60.4258 202.648 59.9766 202.266 59.4062C201.891 58.8281 201.703 58.1719 201.703 57.4375C201.703 56.7734 201.828 56.1836 202.078 55.668C202.328 55.1523 202.695 54.7188 203.18 54.3672C203.672 54.0078 204.285 53.7383 205.02 53.5586C205.754 53.3711 206.605 53.2773 207.574 53.2773H209.531ZM218.461 42.9883V61H215.086V42.9883H218.461ZM226.453 48.3203L220.945 54.6016L217.992 57.5898L216.762 55.1523L219.105 52.1758L222.398 48.3203H226.453ZM222.949 61L219.199 55.1406L221.531 53.1016L226.84 61H222.949Z" fill="#888888"/>
<path d="M110.062 92.0469L101.742 119H92.9062L105.445 84.875H111.047L110.062 92.0469ZM116.953 119L108.609 92.0469L107.531 84.875H113.203L125.812 119H116.953ZM116.625 106.273V112.625H99.1172V106.273H116.625ZM135.258 115.906L142.055 84.875H146.109L148.312 87.5234L141.07 119H136.594L135.258 115.906ZM133.453 84.875L139.195 116.141L137.719 119H132.539L125.297 84.875H133.453ZM152.039 115.977L157.734 84.875H165.867L158.625 119H153.469L152.039 115.977ZM149.039 84.875L156 116.094L154.594 119H150.117L142.711 87.4766L145.008 84.875H149.039ZM186.68 109.93C186.68 109.398 186.602 108.922 186.445 108.5C186.289 108.062 186 107.656 185.578 107.281C185.156 106.906 184.547 106.531 183.75 106.156C182.969 105.766 181.938 105.359 180.656 104.938C179.156 104.438 177.711 103.875 176.32 103.25C174.93 102.609 173.688 101.867 172.594 101.023C171.5 100.164 170.633 99.1641 169.992 98.0234C169.352 96.8672 169.031 95.5234 169.031 93.9922C169.031 92.5234 169.359 91.2031 170.016 90.0312C170.672 88.8438 171.586 87.8359 172.758 87.0078C173.945 86.1641 175.336 85.5234 176.93 85.0859C178.523 84.6328 180.266 84.4062 182.156 84.4062C184.656 84.4062 186.859 84.8438 188.766 85.7188C190.688 86.5781 192.188 87.8047 193.266 89.3984C194.359 90.9766 194.906 92.8438 194.906 95H186.727C186.727 94.1406 186.547 93.3828 186.188 92.7266C185.844 92.0703 185.32 91.5547 184.617 91.1797C183.914 90.8047 183.031 90.6172 181.969 90.6172C180.938 90.6172 180.07 90.7734 179.367 91.0859C178.664 91.3984 178.133 91.8203 177.773 92.3516C177.414 92.8672 177.234 93.4375 177.234 94.0625C177.234 94.5781 177.375 95.0469 177.656 95.4688C177.953 95.875 178.367 96.2578 178.898 96.6172C179.445 96.9766 180.102 97.3203 180.867 97.6484C181.648 97.9766 182.523 98.2969 183.492 98.6094C185.305 99.1875 186.914 99.8359 188.32 100.555C189.742 101.258 190.938 102.062 191.906 102.969C192.891 103.859 193.633 104.875 194.133 106.016C194.648 107.156 194.906 108.445 194.906 109.883C194.906 111.414 194.609 112.773 194.016 113.961C193.422 115.148 192.57 116.156 191.461 116.984C190.352 117.797 189.023 118.414 187.477 118.836C185.93 119.258 184.203 119.469 182.297 119.469C180.547 119.469 178.82 119.25 177.117 118.812C175.43 118.359 173.898 117.672 172.523 116.75C171.148 115.812 170.047 114.617 169.219 113.164C168.406 111.695 168 109.953 168 107.938H176.25C176.25 108.938 176.383 109.781 176.648 110.469C176.914 111.156 177.305 111.711 177.82 112.133C178.336 112.539 178.969 112.836 179.719 113.023C180.469 113.195 181.328 113.281 182.297 113.281C183.344 113.281 184.188 113.133 184.828 112.836C185.469 112.523 185.938 112.117 186.234 111.617C186.531 111.102 186.68 110.539 186.68 109.93ZM222.188 119H214.617L214.664 112.672H222.188C223.75 112.672 225.07 112.297 226.148 111.547C227.242 110.797 228.07 109.68 228.633 108.195C229.211 106.695 229.5 104.852 229.5 102.664V101.188C229.5 99.5469 229.336 98.1094 229.008 96.875C228.695 95.625 228.227 94.5859 227.602 93.7578C226.977 92.9141 226.195 92.2812 225.258 91.8594C224.336 91.4375 223.273 91.2266 222.07 91.2266H214.477V84.875H222.07C224.383 84.875 226.5 85.2734 228.422 86.0703C230.359 86.8516 232.031 87.9766 233.438 89.4453C234.859 90.8984 235.953 92.625 236.719 94.625C237.5 96.6094 237.891 98.8125 237.891 101.234V102.664C237.891 105.07 237.5 107.273 236.719 109.273C235.953 111.273 234.867 113 233.461 114.453C232.055 115.906 230.391 117.031 228.469 117.828C226.562 118.609 224.469 119 222.188 119ZM219.328 84.875V119H211.102V84.875H219.328ZM254.086 119.469C252.023 119.469 250.18 119.148 248.555 118.508C246.93 117.852 245.555 116.953 244.43 115.812C243.32 114.672 242.469 113.359 241.875 111.875C241.297 110.391 241.008 108.82 241.008 107.164V106.273C241.008 104.414 241.266 102.695 241.781 101.117C242.297 99.5234 243.062 98.1328 244.078 96.9453C245.094 95.7578 246.367 94.8359 247.898 94.1797C249.43 93.5078 251.211 93.1719 253.242 93.1719C255.039 93.1719 256.648 93.4609 258.07 94.0391C259.492 94.6172 260.695 95.4453 261.68 96.5234C262.68 97.6016 263.438 98.9062 263.953 100.438C264.484 101.969 264.75 103.688 264.75 105.594V108.805H244.031V103.859H257.039V103.25C257.055 102.406 256.906 101.688 256.594 101.094C256.297 100.5 255.859 100.047 255.281 99.7344C254.703 99.4219 254 99.2656 253.172 99.2656C252.312 99.2656 251.602 99.4531 251.039 99.8281C250.492 100.203 250.062 100.719 249.75 101.375C249.453 102.016 249.242 102.758 249.117 103.602C248.992 104.445 248.93 105.336 248.93 106.273V107.164C248.93 108.102 249.055 108.953 249.305 109.719C249.57 110.484 249.945 111.141 250.43 111.688C250.93 112.219 251.523 112.633 252.211 112.93C252.914 113.227 253.711 113.375 254.602 113.375C255.68 113.375 256.742 113.172 257.789 112.766C258.836 112.359 259.734 111.688 260.484 110.75L264.07 115.016C263.555 115.75 262.82 116.461 261.867 117.148C260.93 117.836 259.805 118.398 258.492 118.836C257.18 119.258 255.711 119.469 254.086 119.469ZM275.93 98.5156V128.75H268.031V93.6406H275.391L275.93 98.5156ZM291.492 106.016V106.508C291.492 108.352 291.281 110.062 290.859 111.641C290.438 113.219 289.812 114.594 288.984 115.766C288.156 116.938 287.125 117.852 285.891 118.508C284.672 119.148 283.258 119.469 281.648 119.469C280.133 119.469 278.828 119.133 277.734 118.461C276.641 117.789 275.727 116.859 274.992 115.672C274.258 114.484 273.664 113.125 273.211 111.594C272.758 110.062 272.398 108.445 272.133 106.742V106.109C272.398 104.281 272.758 102.586 273.211 101.023C273.664 99.4453 274.258 98.0703 274.992 96.8984C275.727 95.7266 276.633 94.8125 277.711 94.1562C278.805 93.5 280.109 93.1719 281.625 93.1719C283.234 93.1719 284.648 93.4766 285.867 94.0859C287.102 94.6953 288.133 95.5703 288.961 96.7109C289.805 97.8359 290.438 99.1875 290.859 100.766C291.281 102.344 291.492 104.094 291.492 106.016ZM283.594 106.508V106.016C283.594 105.031 283.523 104.133 283.383 103.32C283.242 102.492 283.016 101.773 282.703 101.164C282.406 100.555 282.008 100.086 281.508 99.7578C281.008 99.4297 280.391 99.2656 279.656 99.2656C278.812 99.2656 278.102 99.3984 277.523 99.6641C276.961 99.9141 276.508 100.305 276.164 100.836C275.836 101.352 275.602 102 275.461 102.781C275.336 103.547 275.281 104.445 275.297 105.477V107.398C275.266 108.586 275.383 109.633 275.648 110.539C275.914 111.43 276.375 112.125 277.031 112.625C277.688 113.125 278.578 113.375 279.703 113.375C280.453 113.375 281.078 113.203 281.578 112.859C282.078 112.5 282.477 112.008 282.773 111.383C283.07 110.742 283.281 110.008 283.406 109.18C283.531 108.352 283.594 107.461 283.594 106.508ZM303.352 83V119H295.43V83H303.352ZM307.242 106.578V106.086C307.242 104.227 307.508 102.516 308.039 100.953C308.57 99.375 309.352 98.0078 310.383 96.8516C311.414 95.6953 312.688 94.7969 314.203 94.1562C315.719 93.5 317.469 93.1719 319.453 93.1719C321.453 93.1719 323.211 93.5 324.727 94.1562C326.258 94.7969 327.539 95.6953 328.57 96.8516C329.602 98.0078 330.383 99.375 330.914 100.953C331.445 102.516 331.711 104.227 331.711 106.086V106.578C331.711 108.422 331.445 110.133 330.914 111.711C330.383 113.273 329.602 114.641 328.57 115.812C327.539 116.969 326.266 117.867 324.75 118.508C323.234 119.148 321.484 119.469 319.5 119.469C317.516 119.469 315.758 119.148 314.227 118.508C312.695 117.867 311.414 116.969 310.383 115.812C309.352 114.641 308.57 113.273 308.039 111.711C307.508 110.133 307.242 108.422 307.242 106.578ZM315.141 106.086V106.578C315.141 107.531 315.211 108.422 315.352 109.25C315.492 110.078 315.727 110.805 316.055 111.43C316.383 112.039 316.828 112.516 317.391 112.859C317.953 113.203 318.656 113.375 319.5 113.375C320.328 113.375 321.016 113.203 321.562 112.859C322.125 112.516 322.57 112.039 322.898 111.43C323.227 110.805 323.461 110.078 323.602 109.25C323.742 108.422 323.812 107.531 323.812 106.578V106.086C323.812 105.164 323.742 104.297 323.602 103.484C323.461 102.656 323.227 101.93 322.898 101.305C322.57 100.664 322.125 100.164 321.562 99.8047C321 99.4453 320.297 99.2656 319.453 99.2656C318.625 99.2656 317.93 99.4453 317.367 99.8047C316.82 100.164 316.383 100.664 316.055 101.305C315.727 101.93 315.492 102.656 315.352 103.484C315.211 104.297 315.141 105.164 315.141 106.086ZM342.633 116.023L349.195 93.6406H357.68L347.484 122.773C347.266 123.414 346.977 124.102 346.617 124.836C346.258 125.586 345.766 126.297 345.141 126.969C344.516 127.641 343.711 128.188 342.727 128.609C341.758 129.031 340.555 129.242 339.117 129.242C338.352 129.242 337.789 129.203 337.43 129.125C337.086 129.062 336.555 128.945 335.836 128.773V123.125C336.039 123.125 336.211 123.125 336.352 123.125C336.508 123.125 336.68 123.125 336.867 123.125C337.711 123.125 338.383 123.039 338.883 122.867C339.398 122.695 339.789 122.445 340.055 122.117C340.336 121.789 340.555 121.391 340.711 120.922L342.633 116.023ZM340.969 93.6406L345.961 111.383L346.828 119.75H341.531L332.508 93.6406H340.969ZM367.711 99.0078V119H359.812V93.6406H367.219L367.711 99.0078ZM366.75 105.453L364.945 105.5C364.945 103.719 365.156 102.078 365.578 100.578C366 99.0781 366.625 97.7734 367.453 96.6641C368.281 95.5547 369.297 94.6953 370.5 94.0859C371.719 93.4766 373.125 93.1719 374.719 93.1719C375.828 93.1719 376.836 93.3438 377.742 93.6875C378.648 94.0156 379.43 94.5391 380.086 95.2578C380.742 95.9609 381.242 96.8828 381.586 98.0234C381.945 99.1484 382.125 100.5 382.125 102.078V119H374.227V103.086C374.227 102.008 374.102 101.195 373.852 100.648C373.617 100.102 373.273 99.7344 372.82 99.5469C372.367 99.3594 371.812 99.2656 371.156 99.2656C370.469 99.2656 369.852 99.4219 369.305 99.7344C368.758 100.047 368.289 100.484 367.898 101.047C367.523 101.594 367.234 102.242 367.031 102.992C366.844 103.742 366.75 104.562 366.75 105.453ZM381.234 105.453L379.031 105.5C379.031 103.719 379.227 102.078 379.617 100.578C380.023 99.0781 380.625 97.7734 381.422 96.6641C382.234 95.5547 383.242 94.6953 384.445 94.0859C385.648 93.4766 387.047 93.1719 388.641 93.1719C389.797 93.1719 390.859 93.3438 391.828 93.6875C392.797 94.0312 393.633 94.5859 394.336 95.3516C395.039 96.1172 395.586 97.1328 395.977 98.3984C396.367 99.6484 396.562 101.195 396.562 103.039V119H388.641V103.039C388.641 101.992 388.516 101.203 388.266 100.672C388.031 100.125 387.688 99.7578 387.234 99.5703C386.781 99.3672 386.242 99.2656 385.617 99.2656C384.867 99.2656 384.219 99.4219 383.672 99.7344C383.125 100.047 382.664 100.484 382.289 101.047C381.93 101.594 381.664 102.242 381.492 102.992C381.32 103.742 381.234 104.562 381.234 105.453ZM413.367 119.469C411.305 119.469 409.461 119.148 407.836 118.508C406.211 117.852 404.836 116.953 403.711 115.812C402.602 114.672 401.75 113.359 401.156 111.875C400.578 110.391 400.289 108.82 400.289 107.164V106.273C400.289 104.414 400.547 102.695 401.062 101.117C401.578 99.5234 402.344 98.1328 403.359 96.9453C404.375 95.7578 405.648 94.8359 407.18 94.1797C408.711 93.5078 410.492 93.1719 412.523 93.1719C414.32 93.1719 415.93 93.4609 417.352 94.0391C418.773 94.6172 419.977 95.4453 420.961 96.5234C421.961 97.6016 422.719 98.9062 423.234 100.438C423.766 101.969 424.031 103.688 424.031 105.594V108.805H403.312V103.859H416.32V103.25C416.336 102.406 416.188 101.688 415.875 101.094C415.578 100.5 415.141 100.047 414.562 99.7344C413.984 99.4219 413.281 99.2656 412.453 99.2656C411.594 99.2656 410.883 99.4531 410.32 99.8281C409.773 100.203 409.344 100.719 409.031 101.375C408.734 102.016 408.523 102.758 408.398 103.602C408.273 104.445 408.211 105.336 408.211 106.273V107.164C408.211 108.102 408.336 108.953 408.586 109.719C408.852 110.484 409.227 111.141 409.711 111.688C410.211 112.219 410.805 112.633 411.492 112.93C412.195 113.227 412.992 113.375 413.883 113.375C414.961 113.375 416.023 113.172 417.07 112.766C418.117 112.359 419.016 111.688 419.766 110.75L423.352 115.016C422.836 115.75 422.102 116.461 421.148 117.148C420.211 117.836 419.086 118.398 417.773 118.836C416.461 119.258 414.992 119.469 413.367 119.469ZM435 99.0547V119H427.102V93.6406H434.508L435 99.0547ZM434.062 105.453L432.211 105.5C432.211 103.562 432.445 101.836 432.914 100.32C433.383 98.7891 434.047 97.4922 434.906 96.4297C435.766 95.3672 436.789 94.5625 437.977 94.0156C439.18 93.4531 440.516 93.1719 441.984 93.1719C443.156 93.1719 444.227 93.3438 445.195 93.6875C446.18 94.0312 447.023 94.5859 447.727 95.3516C448.445 96.1172 448.992 97.1328 449.367 98.3984C449.758 99.6484 449.953 101.195 449.953 103.039V119H442.008V103.016C442.008 102 441.867 101.227 441.586 100.695C441.305 100.148 440.898 99.7734 440.367 99.5703C439.836 99.3672 439.188 99.2656 438.422 99.2656C437.609 99.2656 436.922 99.4219 436.359 99.7344C435.797 100.047 435.344 100.484 435 101.047C434.672 101.594 434.43 102.242 434.273 102.992C434.133 103.742 434.062 104.562 434.062 105.453ZM467.695 93.6406V99.125H452.414V93.6406H467.695ZM455.625 87.3359H463.523V110.727C463.523 111.398 463.602 111.922 463.758 112.297C463.914 112.656 464.18 112.914 464.555 113.07C464.945 113.211 465.461 113.281 466.102 113.281C466.555 113.281 466.93 113.273 467.227 113.258C467.523 113.227 467.805 113.188 468.07 113.141V118.789C467.398 119.008 466.695 119.172 465.961 119.281C465.227 119.406 464.445 119.469 463.617 119.469C461.93 119.469 460.484 119.203 459.281 118.672C458.094 118.141 457.188 117.305 456.562 116.164C455.938 115.023 455.625 113.539 455.625 111.711V87.3359Z" fill="black"/>
<path d="M1134 0H1348C1356.28 0 1363 6.71573 1363 15V148C1363 156.284 1356.28 163 1348 163H1134V0Z" fill="#2196F3"/>
<path d="M1212.5 117.5L1212.5 45.5L1284.5 45.5L1284.5 117.5L1212.5 117.5Z" fill="white" fill-opacity="0.01"/>
<path d="M1221.5 81.5125L1221.5 108.5L1275.5 108.5L1275.5 81.5" stroke="white" stroke-width="7.24" stroke-linecap="round" stroke-linejoin="round"/>
<path d="M1262 68L1248.5 54.5L1235 68" stroke="white" stroke-width="7.24" stroke-linecap="round" stroke-linejoin="round"/>
<path d="M1248.49 93.5L1248.49 54.5" stroke="white" stroke-width="7.24" stroke-linecap="round" stroke-linejoin="round"/>
</svg>
