<svg width="1363" height="163" viewBox="0 0 1363 163" fill="none" xmlns="http://www.w3.org/2000/svg">
<path d="M0 15C0 6.71573 6.71573 0 15 0H37V163H15C6.71573 163 0 156.284 0 148V15Z" fill="#424242"/>
<rect width="1097" height="163" transform="translate(37)" fill="#F0F0F0"/>
<path d="M101.906 53.9219L94.3945 51.2383V48.0859L104.602 52.375V54.6367L101.906 53.9219ZM94.3945 56.1719L101.918 53.4297L104.602 52.7852V55.0352L94.3945 59.3242V56.1719ZM121.781 56.5352C121.781 56.2305 121.734 55.957 121.641 55.7148C121.555 55.4648 121.391 55.2383 121.148 55.0352C120.906 54.8242 120.566 54.6172 120.129 54.4141C119.691 54.2109 119.125 54 118.43 53.7812C117.656 53.5312 116.922 53.25 116.227 52.9375C115.539 52.625 114.93 52.2617 114.398 51.8477C113.875 51.4258 113.461 50.9375 113.156 50.3828C112.859 49.8281 112.711 49.1836 112.711 48.4492C112.711 47.7383 112.867 47.0938 113.18 46.5156C113.492 45.9297 113.93 45.4297 114.492 45.0156C115.055 44.5938 115.719 44.2695 116.484 44.043C117.258 43.8164 118.105 43.7031 119.027 43.7031C120.285 43.7031 121.383 43.9297 122.32 44.3828C123.258 44.8359 123.984 45.457 124.5 46.2461C125.023 47.0352 125.285 47.9375 125.285 48.9531H121.793C121.793 48.4531 121.688 48.0156 121.477 47.6406C121.273 47.2578 120.961 46.957 120.539 46.7383C120.125 46.5195 119.602 46.4102 118.969 46.4102C118.359 46.4102 117.852 46.5039 117.445 46.6914C117.039 46.8711 116.734 47.1172 116.531 47.4297C116.328 47.7344 116.227 48.0781 116.227 48.4609C116.227 48.75 116.297 49.0117 116.438 49.2461C116.586 49.4805 116.805 49.6992 117.094 49.9023C117.383 50.1055 117.738 50.2969 118.16 50.4766C118.582 50.6562 119.07 50.832 119.625 51.0039C120.555 51.2852 121.371 51.6016 122.074 51.9531C122.785 52.3047 123.379 52.6992 123.855 53.1367C124.332 53.5742 124.691 54.0703 124.934 54.625C125.176 55.1797 125.297 55.8086 125.297 56.5117C125.297 57.2539 125.152 57.918 124.863 58.5039C124.574 59.0898 124.156 59.5859 123.609 59.9922C123.062 60.3984 122.41 60.707 121.652 60.918C120.895 61.1289 120.047 61.2344 119.109 61.2344C118.266 61.2344 117.434 61.125 116.613 60.9062C115.793 60.6797 115.047 60.3398 114.375 59.8867C113.711 59.4336 113.18 58.8555 112.781 58.1523C112.383 57.4492 112.184 56.6172 112.184 55.6562H115.711C115.711 56.1875 115.793 56.6367 115.957 57.0039C116.121 57.3711 116.352 57.668 116.648 57.8945C116.953 58.1211 117.312 58.2852 117.727 58.3867C118.148 58.4883 118.609 58.5391 119.109 58.5391C119.719 58.5391 120.219 58.4531 120.609 58.2812C121.008 58.1094 121.301 57.8711 121.488 57.5664C121.684 57.2617 121.781 56.918 121.781 56.5352ZM131.039 48.3203V61H127.652V48.3203H131.039ZM127.441 45.0156C127.441 44.5234 127.613 44.1172 127.957 43.7969C128.301 43.4766 128.762 43.3164 129.34 43.3164C129.91 43.3164 130.367 43.4766 130.711 43.7969C131.062 44.1172 131.238 44.5234 131.238 45.0156C131.238 45.5078 131.062 45.9141 130.711 46.2344C130.367 46.5547 129.91 46.7148 129.34 46.7148C128.762 46.7148 128.301 46.5547 127.957 46.2344C127.613 45.9141 127.441 45.5078 127.441 45.0156ZM141.855 48.3203H144.914V60.5781C144.914 61.7344 144.656 62.7148 144.141 63.5195C143.633 64.332 142.922 64.9453 142.008 65.3594C141.094 65.7812 140.031 65.9922 138.82 65.9922C138.289 65.9922 137.727 65.9219 137.133 65.7812C136.547 65.6406 135.984 65.4219 135.445 65.125C134.914 64.8281 134.469 64.4531 134.109 64L135.598 62.0078C135.988 62.4609 136.441 62.8125 136.957 63.0625C137.473 63.3203 138.043 63.4492 138.668 63.4492C139.277 63.4492 139.793 63.3359 140.215 63.1094C140.637 62.8906 140.961 62.5664 141.188 62.1367C141.414 61.7148 141.527 61.2031 141.527 60.6016V51.25L141.855 48.3203ZM133.324 54.8125V54.5664C133.324 53.5977 133.441 52.7188 133.676 51.9297C133.918 51.1328 134.258 50.4492 134.695 49.8789C135.141 49.3086 135.68 48.8672 136.312 48.5547C136.945 48.2422 137.66 48.0859 138.457 48.0859C139.301 48.0859 140.008 48.2422 140.578 48.5547C141.148 48.8672 141.617 49.3125 141.984 49.8906C142.352 50.4609 142.637 51.1367 142.84 51.918C143.051 52.6914 143.215 53.5391 143.332 54.4609V55C143.215 55.8828 143.039 56.7031 142.805 57.4609C142.57 58.2188 142.262 58.8828 141.879 59.4531C141.496 60.0156 141.02 60.4531 140.449 60.7656C139.887 61.0781 139.215 61.2344 138.434 61.2344C137.652 61.2344 136.945 61.0742 136.312 60.7539C135.688 60.4336 135.152 59.9844 134.707 59.4062C134.262 58.8281 133.918 58.1484 133.676 57.3672C133.441 56.5859 133.324 55.7344 133.324 54.8125ZM136.699 54.5664V54.8125C136.699 55.3359 136.75 55.8242 136.852 56.2773C136.953 56.7305 137.109 57.1328 137.32 57.4844C137.539 57.8281 137.809 58.0977 138.129 58.293C138.457 58.4805 138.844 58.5742 139.289 58.5742C139.906 58.5742 140.41 58.4453 140.801 58.1875C141.191 57.9219 141.484 57.5586 141.68 57.0977C141.875 56.6367 141.988 56.1055 142.02 55.5039V53.9688C142.004 53.4766 141.938 53.0352 141.82 52.6445C141.703 52.2461 141.539 51.9062 141.328 51.625C141.117 51.3438 140.844 51.125 140.508 50.9688C140.172 50.8125 139.773 50.7344 139.312 50.7344C138.867 50.7344 138.48 50.8359 138.152 51.0391C137.832 51.2344 137.562 51.5039 137.344 51.8477C137.133 52.1914 136.973 52.5977 136.863 53.0664C136.754 53.5273 136.699 54.0273 136.699 54.5664ZM150.844 51.0273V61H147.469V48.3203H150.633L150.844 51.0273ZM150.352 54.2148H149.438C149.438 53.2773 149.559 52.4336 149.801 51.6836C150.043 50.9258 150.383 50.2812 150.82 49.75C151.258 49.2109 151.777 48.8008 152.379 48.5195C152.988 48.2305 153.668 48.0859 154.418 48.0859C155.012 48.0859 155.555 48.1719 156.047 48.3438C156.539 48.5156 156.961 48.7891 157.312 49.1641C157.672 49.5391 157.945 50.0352 158.133 50.6523C158.328 51.2695 158.426 52.0234 158.426 52.9141V61H155.027V52.9023C155.027 52.3398 154.949 51.9023 154.793 51.5898C154.637 51.2773 154.406 51.0586 154.102 50.9336C153.805 50.8008 153.438 50.7344 153 50.7344C152.547 50.7344 152.152 50.8242 151.816 51.0039C151.488 51.1836 151.215 51.4336 150.996 51.7539C150.785 52.0664 150.625 52.4336 150.516 52.8555C150.406 53.2773 150.352 53.7305 150.352 54.2148ZM170.086 56.5352C170.086 56.2305 170.039 55.957 169.945 55.7148C169.859 55.4648 169.695 55.2383 169.453 55.0352C169.211 54.8242 168.871 54.6172 168.434 54.4141C167.996 54.2109 167.43 54 166.734 53.7812C165.961 53.5312 165.227 53.25 164.531 52.9375C163.844 52.625 163.234 52.2617 162.703 51.8477C162.18 51.4258 161.766 50.9375 161.461 50.3828C161.164 49.8281 161.016 49.1836 161.016 48.4492C161.016 47.7383 161.172 47.0938 161.484 46.5156C161.797 45.9297 162.234 45.4297 162.797 45.0156C163.359 44.5938 164.023 44.2695 164.789 44.043C165.562 43.8164 166.41 43.7031 167.332 43.7031C168.59 43.7031 169.688 43.9297 170.625 44.3828C171.562 44.8359 172.289 45.457 172.805 46.2461C173.328 47.0352 173.59 47.9375 173.59 48.9531H170.098C170.098 48.4531 169.992 48.0156 169.781 47.6406C169.578 47.2578 169.266 46.957 168.844 46.7383C168.43 46.5195 167.906 46.4102 167.273 46.4102C166.664 46.4102 166.156 46.5039 165.75 46.6914C165.344 46.8711 165.039 47.1172 164.836 47.4297C164.633 47.7344 164.531 48.0781 164.531 48.4609C164.531 48.75 164.602 49.0117 164.742 49.2461C164.891 49.4805 165.109 49.6992 165.398 49.9023C165.688 50.1055 166.043 50.2969 166.465 50.4766C166.887 50.6562 167.375 50.832 167.93 51.0039C168.859 51.2852 169.676 51.6016 170.379 51.9531C171.09 52.3047 171.684 52.6992 172.16 53.1367C172.637 53.5742 172.996 54.0703 173.238 54.625C173.48 55.1797 173.602 55.8086 173.602 56.5117C173.602 57.2539 173.457 57.918 173.168 58.5039C172.879 59.0898 172.461 59.5859 171.914 59.9922C171.367 60.3984 170.715 60.707 169.957 60.918C169.199 61.1289 168.352 61.2344 167.414 61.2344C166.57 61.2344 165.738 61.125 164.918 60.9062C164.098 60.6797 163.352 60.3398 162.68 59.8867C162.016 59.4336 161.484 58.8555 161.086 58.1523C160.688 57.4492 160.488 56.6172 160.488 55.6562H164.016C164.016 56.1875 164.098 56.6367 164.262 57.0039C164.426 57.3711 164.656 57.668 164.953 57.8945C165.258 58.1211 165.617 58.2852 166.031 58.3867C166.453 58.4883 166.914 58.5391 167.414 58.5391C168.023 58.5391 168.523 58.4531 168.914 58.2812C169.312 58.1094 169.605 57.8711 169.793 57.5664C169.988 57.2617 170.086 56.918 170.086 56.5352ZM179.156 50.7578V65.875H175.781V48.3203H178.91L179.156 50.7578ZM187.184 54.5195V54.7656C187.184 55.6875 187.074 56.543 186.855 57.332C186.645 58.1211 186.332 58.8086 185.918 59.3945C185.504 59.9727 184.988 60.4258 184.371 60.7539C183.762 61.0742 183.059 61.2344 182.262 61.2344C181.488 61.2344 180.816 61.0781 180.246 60.7656C179.676 60.4531 179.195 60.0156 178.805 59.4531C178.422 58.8828 178.113 58.2227 177.879 57.4727C177.645 56.7227 177.465 55.918 177.34 55.0586V54.4141C177.465 53.4922 177.645 52.6484 177.879 51.8828C178.113 51.1094 178.422 50.4414 178.805 49.8789C179.195 49.3086 179.672 48.8672 180.234 48.5547C180.805 48.2422 181.473 48.0859 182.238 48.0859C183.043 48.0859 183.75 48.2383 184.359 48.543C184.977 48.8477 185.492 49.2852 185.906 49.8555C186.328 50.4258 186.645 51.1055 186.855 51.8945C187.074 52.6836 187.184 53.5586 187.184 54.5195ZM183.797 54.7656V54.5195C183.797 53.9805 183.75 53.4844 183.656 53.0312C183.57 52.5703 183.43 52.168 183.234 51.8242C183.047 51.4805 182.797 51.2148 182.484 51.0273C182.18 50.832 181.809 50.7344 181.371 50.7344C180.91 50.7344 180.516 50.8086 180.188 50.957C179.867 51.1055 179.605 51.3203 179.402 51.6016C179.199 51.8828 179.047 52.2188 178.945 52.6094C178.844 53 178.781 53.4414 178.758 53.9336V55.5625C178.797 56.1406 178.906 56.6602 179.086 57.1211C179.266 57.5742 179.543 57.9336 179.918 58.1992C180.293 58.4648 180.785 58.5977 181.395 58.5977C181.84 58.5977 182.215 58.5 182.52 58.3047C182.824 58.1016 183.07 57.8242 183.258 57.4727C183.453 57.1211 183.59 56.7148 183.668 56.2539C183.754 55.793 183.797 55.2969 183.797 54.7656ZM195.117 61.2344C194.133 61.2344 193.25 61.0781 192.469 60.7656C191.688 60.4453 191.023 60.0039 190.477 59.4414C189.938 58.8789 189.523 58.2266 189.234 57.4844C188.945 56.7344 188.801 55.9375 188.801 55.0938V54.625C188.801 53.6641 188.938 52.7852 189.211 51.9883C189.484 51.1914 189.875 50.5 190.383 49.9141C190.898 49.3281 191.523 48.8789 192.258 48.5664C192.992 48.2461 193.82 48.0859 194.742 48.0859C195.641 48.0859 196.438 48.2344 197.133 48.5312C197.828 48.8281 198.41 49.25 198.879 49.7969C199.355 50.3438 199.715 51 199.957 51.7656C200.199 52.5234 200.32 53.3672 200.32 54.2969V55.7031H190.242V53.4531H197.004V53.1953C197.004 52.7266 196.918 52.3086 196.746 51.9414C196.582 51.5664 196.332 51.2695 195.996 51.0508C195.66 50.832 195.23 50.7227 194.707 50.7227C194.262 50.7227 193.879 50.8203 193.559 51.0156C193.238 51.2109 192.977 51.4844 192.773 51.8359C192.578 52.1875 192.43 52.6016 192.328 53.0781C192.234 53.5469 192.188 54.0625 192.188 54.625V55.0938C192.188 55.6016 192.258 56.0703 192.398 56.5C192.547 56.9297 192.754 57.3008 193.02 57.6133C193.293 57.9258 193.621 58.168 194.004 58.3398C194.395 58.5117 194.836 58.5977 195.328 58.5977C195.938 58.5977 196.504 58.4805 197.027 58.2461C197.559 58.0039 198.016 57.6406 198.398 57.1562L200.039 58.9375C199.773 59.3203 199.41 59.6875 198.949 60.0391C198.496 60.3906 197.949 60.6797 197.309 60.9062C196.668 61.125 195.938 61.2344 195.117 61.2344ZM209.086 58.1406V52.4922C209.086 52.0859 209.02 51.7383 208.887 51.4492C208.754 51.1523 208.547 50.9219 208.266 50.7578C207.992 50.5938 207.637 50.5117 207.199 50.5117C206.824 50.5117 206.5 50.5781 206.227 50.7109C205.953 50.8359 205.742 51.0195 205.594 51.2617C205.445 51.4961 205.371 51.7734 205.371 52.0938H201.996C201.996 51.5547 202.121 51.043 202.371 50.5586C202.621 50.0742 202.984 49.6484 203.461 49.2812C203.938 48.9062 204.504 48.6133 205.16 48.4023C205.824 48.1914 206.566 48.0859 207.387 48.0859C208.371 48.0859 209.246 48.25 210.012 48.5781C210.777 48.9062 211.379 49.3984 211.816 50.0547C212.262 50.7109 212.484 51.5312 212.484 52.5156V57.9414C212.484 58.6367 212.527 59.207 212.613 59.6523C212.699 60.0898 212.824 60.4727 212.988 60.8008V61H209.578C209.414 60.6562 209.289 60.2266 209.203 59.7109C209.125 59.1875 209.086 58.6641 209.086 58.1406ZM209.531 53.2773L209.555 55.1875H207.668C207.223 55.1875 206.836 55.2383 206.508 55.3398C206.18 55.4414 205.91 55.5859 205.699 55.7734C205.488 55.9531 205.332 56.1641 205.23 56.4062C205.137 56.6484 205.09 56.9141 205.09 57.2031C205.09 57.4922 205.156 57.7539 205.289 57.9883C205.422 58.2148 205.613 58.3945 205.863 58.5273C206.113 58.6523 206.406 58.7148 206.742 58.7148C207.25 58.7148 207.691 58.6133 208.066 58.4102C208.441 58.207 208.73 57.957 208.934 57.6602C209.145 57.3633 209.254 57.082 209.262 56.8164L210.152 58.2461C210.027 58.5664 209.855 58.8984 209.637 59.2422C209.426 59.5859 209.156 59.9102 208.828 60.2148C208.5 60.5117 208.105 60.7578 207.645 60.9531C207.184 61.1406 206.637 61.2344 206.004 61.2344C205.199 61.2344 204.469 61.0742 203.812 60.7539C203.164 60.4258 202.648 59.9766 202.266 59.4062C201.891 58.8281 201.703 58.1719 201.703 57.4375C201.703 56.7734 201.828 56.1836 202.078 55.668C202.328 55.1523 202.695 54.7188 203.18 54.3672C203.672 54.0078 204.285 53.7383 205.02 53.5586C205.754 53.3711 206.605 53.2773 207.574 53.2773H209.531ZM218.461 42.9883V61H215.086V42.9883H218.461ZM226.453 48.3203L220.945 54.6016L217.992 57.5898L216.762 55.1523L219.105 52.1758L222.398 48.3203H226.453ZM222.949 61L219.199 55.1406L221.531 53.1016L226.84 61H222.949Z" fill="#888888"/>
<path d="M114.117 84.875H122.344V107.164C122.344 109.82 121.789 112.07 120.68 113.914C119.57 115.742 118.016 117.125 116.016 118.062C114.016 119 111.664 119.469 108.961 119.469C106.289 119.469 103.938 119 101.906 118.062C99.8906 117.125 98.3125 115.742 97.1719 113.914C96.0469 112.07 95.4844 109.82 95.4844 107.164V84.875H103.734V107.164C103.734 108.57 103.938 109.719 104.344 110.609C104.75 111.484 105.344 112.125 106.125 112.531C106.906 112.938 107.852 113.141 108.961 113.141C110.086 113.141 111.031 112.938 111.797 112.531C112.562 112.125 113.141 111.484 113.531 110.609C113.922 109.719 114.117 108.57 114.117 107.164V84.875ZM136.266 84.875V119H128.062V84.875H136.266ZM172.523 84.875H180.75V107.164C180.75 109.82 180.195 112.07 179.086 113.914C177.977 115.742 176.422 117.125 174.422 118.062C172.422 119 170.07 119.469 167.367 119.469C164.695 119.469 162.344 119 160.312 118.062C158.297 117.125 156.719 115.742 155.578 113.914C154.453 112.07 153.891 109.82 153.891 107.164V84.875H162.141V107.164C162.141 108.57 162.344 109.719 162.75 110.609C163.156 111.484 163.75 112.125 164.531 112.531C165.312 112.938 166.258 113.141 167.367 113.141C168.492 113.141 169.438 112.938 170.203 112.531C170.969 112.125 171.547 111.484 171.938 110.609C172.328 109.719 172.523 108.57 172.523 107.164V84.875ZM193.078 84.875L198.656 96.2188L204.234 84.875H213.609L204.094 101.797L213.867 119H204.398L198.656 107.445L192.914 119H183.422L193.219 101.797L183.68 84.875H193.078Z" fill="black"/>
<path d="M1134 0H1348C1356.28 0 1363 6.71573 1363 15V148C1363 156.284 1356.28 163 1348 163H1134V0Z" fill="#2196F3"/>
<path d="M1248.5 111.917C1244.51 111.917 1240.55 111.13 1236.86 109.601C1233.17 108.073 1229.82 105.832 1226.99 103.008C1221.29 97.3036 1218.08 89.567 1218.08 81.5C1218.08 73.433 1221.29 65.6964 1226.99 59.9922C1232.7 54.2879 1240.43 51.0833 1248.5 51.0833C1265.23 51.0833 1278.92 63.25 1278.92 78.4583C1278.92 83.2985 1276.99 87.9405 1273.57 91.363C1270.15 94.7856 1265.51 96.7083 1260.67 96.7083H1255.19C1254.28 96.7083 1253.67 97.3167 1253.67 98.2292C1253.67 98.5333 1253.97 98.8375 1253.97 99.1417C1255.19 100.662 1255.8 102.487 1255.8 104.312C1256.1 108.571 1252.76 111.917 1248.5 111.917ZM1248.5 57.1667C1242.05 57.1667 1235.86 59.7303 1231.29 64.2937C1226.73 68.8571 1224.17 75.0464 1224.17 81.5C1224.17 87.9536 1226.73 94.1429 1231.29 98.7063C1235.86 103.27 1242.05 105.833 1248.5 105.833C1249.41 105.833 1250.02 105.225 1250.02 104.312C1250.02 103.704 1249.72 103.4 1249.72 103.096C1248.5 101.575 1247.89 100.054 1247.89 98.2292C1247.89 93.9708 1251.24 90.625 1255.5 90.625H1260.67C1263.89 90.625 1266.99 89.3432 1269.27 87.0615C1271.55 84.7798 1272.83 81.6851 1272.83 78.4583C1272.83 66.5958 1261.88 57.1667 1248.5 57.1667ZM1231.77 75.4167C1234.2 75.4167 1236.33 77.5458 1236.33 79.9792C1236.33 82.4125 1234.2 84.5417 1231.77 84.5417C1229.34 84.5417 1227.21 82.4125 1227.21 79.9792C1227.21 77.5458 1229.34 75.4167 1231.77 75.4167ZM1240.9 63.25C1243.33 63.25 1245.46 65.3792 1245.46 67.8125C1245.46 70.2458 1243.33 72.375 1240.9 72.375C1238.46 72.375 1236.33 70.2458 1236.33 67.8125C1236.33 65.3792 1238.46 63.25 1240.9 63.25ZM1256.1 63.25C1258.54 63.25 1260.67 65.3792 1260.67 67.8125C1260.67 70.2458 1258.54 72.375 1256.1 72.375C1253.67 72.375 1251.54 70.2458 1251.54 67.8125C1251.54 65.3792 1253.67 63.25 1256.1 63.25ZM1265.23 75.4167C1267.66 75.4167 1269.79 77.5458 1269.79 79.9792C1269.79 82.4125 1267.66 84.5417 1265.23 84.5417C1262.8 84.5417 1260.67 82.4125 1260.67 79.9792C1260.67 77.5458 1262.8 75.4167 1265.23 75.4167Z" fill="white"/>
</svg>
