<svg width="1363" height="163" viewBox="0 0 1363 163" fill="none" xmlns="http://www.w3.org/2000/svg">
<path d="M0 15C0 6.71573 6.71573 0 15 0H37V163H15C6.71573 163 0 156.284 0 148V15Z" fill="#424242"/>
<rect width="1097" height="163" transform="translate(37)" fill="#F0F0F0"/>
<path d="M101.906 53.9219L94.3945 51.2383V48.0859L104.602 52.375V54.6367L101.906 53.9219ZM94.3945 56.1719L101.918 53.4297L104.602 52.7852V55.0352L94.3945 59.3242V56.1719ZM121.781 56.5352C121.781 56.2305 121.734 55.957 121.641 55.7148C121.555 55.4648 121.391 55.2383 121.148 55.0352C120.906 54.8242 120.566 54.6172 120.129 54.4141C119.691 54.2109 119.125 54 118.43 53.7812C117.656 53.5312 116.922 53.25 116.227 52.9375C115.539 52.625 114.93 52.2617 114.398 51.8477C113.875 51.4258 113.461 50.9375 113.156 50.3828C112.859 49.8281 112.711 49.1836 112.711 48.4492C112.711 47.7383 112.867 47.0938 113.18 46.5156C113.492 45.9297 113.93 45.4297 114.492 45.0156C115.055 44.5938 115.719 44.2695 116.484 44.043C117.258 43.8164 118.105 43.7031 119.027 43.7031C120.285 43.7031 121.383 43.9297 122.32 44.3828C123.258 44.8359 123.984 45.457 124.5 46.2461C125.023 47.0352 125.285 47.9375 125.285 48.9531H121.793C121.793 48.4531 121.688 48.0156 121.477 47.6406C121.273 47.2578 120.961 46.957 120.539 46.7383C120.125 46.5195 119.602 46.4102 118.969 46.4102C118.359 46.4102 117.852 46.5039 117.445 46.6914C117.039 46.8711 116.734 47.1172 116.531 47.4297C116.328 47.7344 116.227 48.0781 116.227 48.4609C116.227 48.75 116.297 49.0117 116.438 49.2461C116.586 49.4805 116.805 49.6992 117.094 49.9023C117.383 50.1055 117.738 50.2969 118.16 50.4766C118.582 50.6562 119.07 50.832 119.625 51.0039C120.555 51.2852 121.371 51.6016 122.074 51.9531C122.785 52.3047 123.379 52.6992 123.855 53.1367C124.332 53.5742 124.691 54.0703 124.934 54.625C125.176 55.1797 125.297 55.8086 125.297 56.5117C125.297 57.2539 125.152 57.918 124.863 58.5039C124.574 59.0898 124.156 59.5859 123.609 59.9922C123.062 60.3984 122.41 60.707 121.652 60.918C120.895 61.1289 120.047 61.2344 119.109 61.2344C118.266 61.2344 117.434 61.125 116.613 60.9062C115.793 60.6797 115.047 60.3398 114.375 59.8867C113.711 59.4336 113.18 58.8555 112.781 58.1523C112.383 57.4492 112.184 56.6172 112.184 55.6562H115.711C115.711 56.1875 115.793 56.6367 115.957 57.0039C116.121 57.3711 116.352 57.668 116.648 57.8945C116.953 58.1211 117.312 58.2852 117.727 58.3867C118.148 58.4883 118.609 58.5391 119.109 58.5391C119.719 58.5391 120.219 58.4531 120.609 58.2812C121.008 58.1094 121.301 57.8711 121.488 57.5664C121.684 57.2617 121.781 56.918 121.781 56.5352ZM131.039 48.3203V61H127.652V48.3203H131.039ZM127.441 45.0156C127.441 44.5234 127.613 44.1172 127.957 43.7969C128.301 43.4766 128.762 43.3164 129.34 43.3164C129.91 43.3164 130.367 43.4766 130.711 43.7969C131.062 44.1172 131.238 44.5234 131.238 45.0156C131.238 45.5078 131.062 45.9141 130.711 46.2344C130.367 46.5547 129.91 46.7148 129.34 46.7148C128.762 46.7148 128.301 46.5547 127.957 46.2344C127.613 45.9141 127.441 45.5078 127.441 45.0156ZM141.855 48.3203H144.914V60.5781C144.914 61.7344 144.656 62.7148 144.141 63.5195C143.633 64.332 142.922 64.9453 142.008 65.3594C141.094 65.7812 140.031 65.9922 138.82 65.9922C138.289 65.9922 137.727 65.9219 137.133 65.7812C136.547 65.6406 135.984 65.4219 135.445 65.125C134.914 64.8281 134.469 64.4531 134.109 64L135.598 62.0078C135.988 62.4609 136.441 62.8125 136.957 63.0625C137.473 63.3203 138.043 63.4492 138.668 63.4492C139.277 63.4492 139.793 63.3359 140.215 63.1094C140.637 62.8906 140.961 62.5664 141.188 62.1367C141.414 61.7148 141.527 61.2031 141.527 60.6016V51.25L141.855 48.3203ZM133.324 54.8125V54.5664C133.324 53.5977 133.441 52.7188 133.676 51.9297C133.918 51.1328 134.258 50.4492 134.695 49.8789C135.141 49.3086 135.68 48.8672 136.312 48.5547C136.945 48.2422 137.66 48.0859 138.457 48.0859C139.301 48.0859 140.008 48.2422 140.578 48.5547C141.148 48.8672 141.617 49.3125 141.984 49.8906C142.352 50.4609 142.637 51.1367 142.84 51.918C143.051 52.6914 143.215 53.5391 143.332 54.4609V55C143.215 55.8828 143.039 56.7031 142.805 57.4609C142.57 58.2188 142.262 58.8828 141.879 59.4531C141.496 60.0156 141.02 60.4531 140.449 60.7656C139.887 61.0781 139.215 61.2344 138.434 61.2344C137.652 61.2344 136.945 61.0742 136.312 60.7539C135.688 60.4336 135.152 59.9844 134.707 59.4062C134.262 58.8281 133.918 58.1484 133.676 57.3672C133.441 56.5859 133.324 55.7344 133.324 54.8125ZM136.699 54.5664V54.8125C136.699 55.3359 136.75 55.8242 136.852 56.2773C136.953 56.7305 137.109 57.1328 137.32 57.4844C137.539 57.8281 137.809 58.0977 138.129 58.293C138.457 58.4805 138.844 58.5742 139.289 58.5742C139.906 58.5742 140.41 58.4453 140.801 58.1875C141.191 57.9219 141.484 57.5586 141.68 57.0977C141.875 56.6367 141.988 56.1055 142.02 55.5039V53.9688C142.004 53.4766 141.938 53.0352 141.82 52.6445C141.703 52.2461 141.539 51.9062 141.328 51.625C141.117 51.3438 140.844 51.125 140.508 50.9688C140.172 50.8125 139.773 50.7344 139.312 50.7344C138.867 50.7344 138.48 50.8359 138.152 51.0391C137.832 51.2344 137.562 51.5039 137.344 51.8477C137.133 52.1914 136.973 52.5977 136.863 53.0664C136.754 53.5273 136.699 54.0273 136.699 54.5664ZM150.844 51.0273V61H147.469V48.3203H150.633L150.844 51.0273ZM150.352 54.2148H149.438C149.438 53.2773 149.559 52.4336 149.801 51.6836C150.043 50.9258 150.383 50.2812 150.82 49.75C151.258 49.2109 151.777 48.8008 152.379 48.5195C152.988 48.2305 153.668 48.0859 154.418 48.0859C155.012 48.0859 155.555 48.1719 156.047 48.3438C156.539 48.5156 156.961 48.7891 157.312 49.1641C157.672 49.5391 157.945 50.0352 158.133 50.6523C158.328 51.2695 158.426 52.0234 158.426 52.9141V61H155.027V52.9023C155.027 52.3398 154.949 51.9023 154.793 51.5898C154.637 51.2773 154.406 51.0586 154.102 50.9336C153.805 50.8008 153.438 50.7344 153 50.7344C152.547 50.7344 152.152 50.8242 151.816 51.0039C151.488 51.1836 151.215 51.4336 150.996 51.7539C150.785 52.0664 150.625 52.4336 150.516 52.8555C150.406 53.2773 150.352 53.7305 150.352 54.2148ZM170.086 56.5352C170.086 56.2305 170.039 55.957 169.945 55.7148C169.859 55.4648 169.695 55.2383 169.453 55.0352C169.211 54.8242 168.871 54.6172 168.434 54.4141C167.996 54.2109 167.43 54 166.734 53.7812C165.961 53.5312 165.227 53.25 164.531 52.9375C163.844 52.625 163.234 52.2617 162.703 51.8477C162.18 51.4258 161.766 50.9375 161.461 50.3828C161.164 49.8281 161.016 49.1836 161.016 48.4492C161.016 47.7383 161.172 47.0938 161.484 46.5156C161.797 45.9297 162.234 45.4297 162.797 45.0156C163.359 44.5938 164.023 44.2695 164.789 44.043C165.562 43.8164 166.41 43.7031 167.332 43.7031C168.59 43.7031 169.688 43.9297 170.625 44.3828C171.562 44.8359 172.289 45.457 172.805 46.2461C173.328 47.0352 173.59 47.9375 173.59 48.9531H170.098C170.098 48.4531 169.992 48.0156 169.781 47.6406C169.578 47.2578 169.266 46.957 168.844 46.7383C168.43 46.5195 167.906 46.4102 167.273 46.4102C166.664 46.4102 166.156 46.5039 165.75 46.6914C165.344 46.8711 165.039 47.1172 164.836 47.4297C164.633 47.7344 164.531 48.0781 164.531 48.4609C164.531 48.75 164.602 49.0117 164.742 49.2461C164.891 49.4805 165.109 49.6992 165.398 49.9023C165.688 50.1055 166.043 50.2969 166.465 50.4766C166.887 50.6562 167.375 50.832 167.93 51.0039C168.859 51.2852 169.676 51.6016 170.379 51.9531C171.09 52.3047 171.684 52.6992 172.16 53.1367C172.637 53.5742 172.996 54.0703 173.238 54.625C173.48 55.1797 173.602 55.8086 173.602 56.5117C173.602 57.2539 173.457 57.918 173.168 58.5039C172.879 59.0898 172.461 59.5859 171.914 59.9922C171.367 60.3984 170.715 60.707 169.957 60.918C169.199 61.1289 168.352 61.2344 167.414 61.2344C166.57 61.2344 165.738 61.125 164.918 60.9062C164.098 60.6797 163.352 60.3398 162.68 59.8867C162.016 59.4336 161.484 58.8555 161.086 58.1523C160.688 57.4492 160.488 56.6172 160.488 55.6562H164.016C164.016 56.1875 164.098 56.6367 164.262 57.0039C164.426 57.3711 164.656 57.668 164.953 57.8945C165.258 58.1211 165.617 58.2852 166.031 58.3867C166.453 58.4883 166.914 58.5391 167.414 58.5391C168.023 58.5391 168.523 58.4531 168.914 58.2812C169.312 58.1094 169.605 57.8711 169.793 57.5664C169.988 57.2617 170.086 56.918 170.086 56.5352ZM179.156 50.7578V65.875H175.781V48.3203H178.91L179.156 50.7578ZM187.184 54.5195V54.7656C187.184 55.6875 187.074 56.543 186.855 57.332C186.645 58.1211 186.332 58.8086 185.918 59.3945C185.504 59.9727 184.988 60.4258 184.371 60.7539C183.762 61.0742 183.059 61.2344 182.262 61.2344C181.488 61.2344 180.816 61.0781 180.246 60.7656C179.676 60.4531 179.195 60.0156 178.805 59.4531C178.422 58.8828 178.113 58.2227 177.879 57.4727C177.645 56.7227 177.465 55.918 177.34 55.0586V54.4141C177.465 53.4922 177.645 52.6484 177.879 51.8828C178.113 51.1094 178.422 50.4414 178.805 49.8789C179.195 49.3086 179.672 48.8672 180.234 48.5547C180.805 48.2422 181.473 48.0859 182.238 48.0859C183.043 48.0859 183.75 48.2383 184.359 48.543C184.977 48.8477 185.492 49.2852 185.906 49.8555C186.328 50.4258 186.645 51.1055 186.855 51.8945C187.074 52.6836 187.184 53.5586 187.184 54.5195ZM183.797 54.7656V54.5195C183.797 53.9805 183.75 53.4844 183.656 53.0312C183.57 52.5703 183.43 52.168 183.234 51.8242C183.047 51.4805 182.797 51.2148 182.484 51.0273C182.18 50.832 181.809 50.7344 181.371 50.7344C180.91 50.7344 180.516 50.8086 180.188 50.957C179.867 51.1055 179.605 51.3203 179.402 51.6016C179.199 51.8828 179.047 52.2188 178.945 52.6094C178.844 53 178.781 53.4414 178.758 53.9336V55.5625C178.797 56.1406 178.906 56.6602 179.086 57.1211C179.266 57.5742 179.543 57.9336 179.918 58.1992C180.293 58.4648 180.785 58.5977 181.395 58.5977C181.84 58.5977 182.215 58.5 182.52 58.3047C182.824 58.1016 183.07 57.8242 183.258 57.4727C183.453 57.1211 183.59 56.7148 183.668 56.2539C183.754 55.793 183.797 55.2969 183.797 54.7656ZM195.117 61.2344C194.133 61.2344 193.25 61.0781 192.469 60.7656C191.688 60.4453 191.023 60.0039 190.477 59.4414C189.938 58.8789 189.523 58.2266 189.234 57.4844C188.945 56.7344 188.801 55.9375 188.801 55.0938V54.625C188.801 53.6641 188.938 52.7852 189.211 51.9883C189.484 51.1914 189.875 50.5 190.383 49.9141C190.898 49.3281 191.523 48.8789 192.258 48.5664C192.992 48.2461 193.82 48.0859 194.742 48.0859C195.641 48.0859 196.438 48.2344 197.133 48.5312C197.828 48.8281 198.41 49.25 198.879 49.7969C199.355 50.3438 199.715 51 199.957 51.7656C200.199 52.5234 200.32 53.3672 200.32 54.2969V55.7031H190.242V53.4531H197.004V53.1953C197.004 52.7266 196.918 52.3086 196.746 51.9414C196.582 51.5664 196.332 51.2695 195.996 51.0508C195.66 50.832 195.23 50.7227 194.707 50.7227C194.262 50.7227 193.879 50.8203 193.559 51.0156C193.238 51.2109 192.977 51.4844 192.773 51.8359C192.578 52.1875 192.43 52.6016 192.328 53.0781C192.234 53.5469 192.188 54.0625 192.188 54.625V55.0938C192.188 55.6016 192.258 56.0703 192.398 56.5C192.547 56.9297 192.754 57.3008 193.02 57.6133C193.293 57.9258 193.621 58.168 194.004 58.3398C194.395 58.5117 194.836 58.5977 195.328 58.5977C195.938 58.5977 196.504 58.4805 197.027 58.2461C197.559 58.0039 198.016 57.6406 198.398 57.1562L200.039 58.9375C199.773 59.3203 199.41 59.6875 198.949 60.0391C198.496 60.3906 197.949 60.6797 197.309 60.9062C196.668 61.125 195.938 61.2344 195.117 61.2344ZM209.086 58.1406V52.4922C209.086 52.0859 209.02 51.7383 208.887 51.4492C208.754 51.1523 208.547 50.9219 208.266 50.7578C207.992 50.5938 207.637 50.5117 207.199 50.5117C206.824 50.5117 206.5 50.5781 206.227 50.7109C205.953 50.8359 205.742 51.0195 205.594 51.2617C205.445 51.4961 205.371 51.7734 205.371 52.0938H201.996C201.996 51.5547 202.121 51.043 202.371 50.5586C202.621 50.0742 202.984 49.6484 203.461 49.2812C203.938 48.9062 204.504 48.6133 205.16 48.4023C205.824 48.1914 206.566 48.0859 207.387 48.0859C208.371 48.0859 209.246 48.25 210.012 48.5781C210.777 48.9062 211.379 49.3984 211.816 50.0547C212.262 50.7109 212.484 51.5312 212.484 52.5156V57.9414C212.484 58.6367 212.527 59.207 212.613 59.6523C212.699 60.0898 212.824 60.4727 212.988 60.8008V61H209.578C209.414 60.6562 209.289 60.2266 209.203 59.7109C209.125 59.1875 209.086 58.6641 209.086 58.1406ZM209.531 53.2773L209.555 55.1875H207.668C207.223 55.1875 206.836 55.2383 206.508 55.3398C206.18 55.4414 205.91 55.5859 205.699 55.7734C205.488 55.9531 205.332 56.1641 205.23 56.4062C205.137 56.6484 205.09 56.9141 205.09 57.2031C205.09 57.4922 205.156 57.7539 205.289 57.9883C205.422 58.2148 205.613 58.3945 205.863 58.5273C206.113 58.6523 206.406 58.7148 206.742 58.7148C207.25 58.7148 207.691 58.6133 208.066 58.4102C208.441 58.207 208.73 57.957 208.934 57.6602C209.145 57.3633 209.254 57.082 209.262 56.8164L210.152 58.2461C210.027 58.5664 209.855 58.8984 209.637 59.2422C209.426 59.5859 209.156 59.9102 208.828 60.2148C208.5 60.5117 208.105 60.7578 207.645 60.9531C207.184 61.1406 206.637 61.2344 206.004 61.2344C205.199 61.2344 204.469 61.0742 203.812 60.7539C203.164 60.4258 202.648 59.9766 202.266 59.4062C201.891 58.8281 201.703 58.1719 201.703 57.4375C201.703 56.7734 201.828 56.1836 202.078 55.668C202.328 55.1523 202.695 54.7188 203.18 54.3672C203.672 54.0078 204.285 53.7383 205.02 53.5586C205.754 53.3711 206.605 53.2773 207.574 53.2773H209.531ZM218.461 42.9883V61H215.086V42.9883H218.461ZM226.453 48.3203L220.945 54.6016L217.992 57.5898L216.762 55.1523L219.105 52.1758L222.398 48.3203H226.453ZM222.949 61L219.199 55.1406L221.531 53.1016L226.84 61H222.949Z" fill="#888888"/>
<path d="M104.344 84.875V119H96.1406V84.875H104.344ZM117.727 99.0078V119H109.828V93.6406H117.234L117.727 99.0078ZM116.766 105.453L114.961 105.5C114.961 103.719 115.172 102.078 115.594 100.578C116.016 99.0781 116.641 97.7734 117.469 96.6641C118.297 95.5547 119.312 94.6953 120.516 94.0859C121.734 93.4766 123.141 93.1719 124.734 93.1719C125.844 93.1719 126.852 93.3438 127.758 93.6875C128.664 94.0156 129.445 94.5391 130.102 95.2578C130.758 95.9609 131.258 96.8828 131.602 98.0234C131.961 99.1484 132.141 100.5 132.141 102.078V119H124.242V103.086C124.242 102.008 124.117 101.195 123.867 100.648C123.633 100.102 123.289 99.7344 122.836 99.5469C122.383 99.3594 121.828 99.2656 121.172 99.2656C120.484 99.2656 119.867 99.4219 119.32 99.7344C118.773 100.047 118.305 100.484 117.914 101.047C117.539 101.594 117.25 102.242 117.047 102.992C116.859 103.742 116.766 104.562 116.766 105.453ZM131.25 105.453L129.047 105.5C129.047 103.719 129.242 102.078 129.633 100.578C130.039 99.0781 130.641 97.7734 131.438 96.6641C132.25 95.5547 133.258 94.6953 134.461 94.0859C135.664 93.4766 137.062 93.1719 138.656 93.1719C139.812 93.1719 140.875 93.3438 141.844 93.6875C142.812 94.0312 143.648 94.5859 144.352 95.3516C145.055 96.1172 145.602 97.1328 145.992 98.3984C146.383 99.6484 146.578 101.195 146.578 103.039V119H138.656V103.039C138.656 101.992 138.531 101.203 138.281 100.672C138.047 100.125 137.703 99.7578 137.25 99.5703C136.797 99.3672 136.258 99.2656 135.633 99.2656C134.883 99.2656 134.234 99.4219 133.688 99.7344C133.141 100.047 132.68 100.484 132.305 101.047C131.945 101.594 131.68 102.242 131.508 102.992C131.336 103.742 131.25 104.562 131.25 105.453ZM159.07 98.5156V128.75H151.172V93.6406H158.531L159.07 98.5156ZM174.633 106.016V106.508C174.633 108.352 174.422 110.062 174 111.641C173.578 113.219 172.953 114.594 172.125 115.766C171.297 116.938 170.266 117.852 169.031 118.508C167.812 119.148 166.398 119.469 164.789 119.469C163.273 119.469 161.969 119.133 160.875 118.461C159.781 117.789 158.867 116.859 158.133 115.672C157.398 114.484 156.805 113.125 156.352 111.594C155.898 110.062 155.539 108.445 155.273 106.742V106.109C155.539 104.281 155.898 102.586 156.352 101.023C156.805 99.4453 157.398 98.0703 158.133 96.8984C158.867 95.7266 159.773 94.8125 160.852 94.1562C161.945 93.5 163.25 93.1719 164.766 93.1719C166.375 93.1719 167.789 93.4766 169.008 94.0859C170.242 94.6953 171.273 95.5703 172.102 96.7109C172.945 97.8359 173.578 99.1875 174 100.766C174.422 102.344 174.633 104.094 174.633 106.016ZM166.734 106.508V106.016C166.734 105.031 166.664 104.133 166.523 103.32C166.383 102.492 166.156 101.773 165.844 101.164C165.547 100.555 165.148 100.086 164.648 99.7578C164.148 99.4297 163.531 99.2656 162.797 99.2656C161.953 99.2656 161.242 99.3984 160.664 99.6641C160.102 99.9141 159.648 100.305 159.305 100.836C158.977 101.352 158.742 102 158.602 102.781C158.477 103.547 158.422 104.445 158.438 105.477V107.398C158.406 108.586 158.523 109.633 158.789 110.539C159.055 111.43 159.516 112.125 160.172 112.625C160.828 113.125 161.719 113.375 162.844 113.375C163.594 113.375 164.219 113.203 164.719 112.859C165.219 112.5 165.617 112.008 165.914 111.383C166.211 110.742 166.422 110.008 166.547 109.18C166.672 108.352 166.734 107.461 166.734 106.508ZM186.492 83V119H178.57V83H186.492ZM203.648 119.469C201.586 119.469 199.742 119.148 198.117 118.508C196.492 117.852 195.117 116.953 193.992 115.812C192.883 114.672 192.031 113.359 191.438 111.875C190.859 110.391 190.57 108.82 190.57 107.164V106.273C190.57 104.414 190.828 102.695 191.344 101.117C191.859 99.5234 192.625 98.1328 193.641 96.9453C194.656 95.7578 195.93 94.8359 197.461 94.1797C198.992 93.5078 200.773 93.1719 202.805 93.1719C204.602 93.1719 206.211 93.4609 207.633 94.0391C209.055 94.6172 210.258 95.4453 211.242 96.5234C212.242 97.6016 213 98.9062 213.516 100.438C214.047 101.969 214.312 103.688 214.312 105.594V108.805H193.594V103.859H206.602V103.25C206.617 102.406 206.469 101.688 206.156 101.094C205.859 100.5 205.422 100.047 204.844 99.7344C204.266 99.4219 203.562 99.2656 202.734 99.2656C201.875 99.2656 201.164 99.4531 200.602 99.8281C200.055 100.203 199.625 100.719 199.312 101.375C199.016 102.016 198.805 102.758 198.68 103.602C198.555 104.445 198.492 105.336 198.492 106.273V107.164C198.492 108.102 198.617 108.953 198.867 109.719C199.133 110.484 199.508 111.141 199.992 111.688C200.492 112.219 201.086 112.633 201.773 112.93C202.477 113.227 203.273 113.375 204.164 113.375C205.242 113.375 206.305 113.172 207.352 112.766C208.398 112.359 209.297 111.688 210.047 110.75L213.633 115.016C213.117 115.75 212.383 116.461 211.43 117.148C210.492 117.836 209.367 118.398 208.055 118.836C206.742 119.258 205.273 119.469 203.648 119.469ZM225.492 99.0078V119H217.594V93.6406H225L225.492 99.0078ZM224.531 105.453L222.727 105.5C222.727 103.719 222.938 102.078 223.359 100.578C223.781 99.0781 224.406 97.7734 225.234 96.6641C226.062 95.5547 227.078 94.6953 228.281 94.0859C229.5 93.4766 230.906 93.1719 232.5 93.1719C233.609 93.1719 234.617 93.3438 235.523 93.6875C236.43 94.0156 237.211 94.5391 237.867 95.2578C238.523 95.9609 239.023 96.8828 239.367 98.0234C239.727 99.1484 239.906 100.5 239.906 102.078V119H232.008V103.086C232.008 102.008 231.883 101.195 231.633 100.648C231.398 100.102 231.055 99.7344 230.602 99.5469C230.148 99.3594 229.594 99.2656 228.938 99.2656C228.25 99.2656 227.633 99.4219 227.086 99.7344C226.539 100.047 226.07 100.484 225.68 101.047C225.305 101.594 225.016 102.242 224.812 102.992C224.625 103.742 224.531 104.562 224.531 105.453ZM239.016 105.453L236.812 105.5C236.812 103.719 237.008 102.078 237.398 100.578C237.805 99.0781 238.406 97.7734 239.203 96.6641C240.016 95.5547 241.023 94.6953 242.227 94.0859C243.43 93.4766 244.828 93.1719 246.422 93.1719C247.578 93.1719 248.641 93.3438 249.609 93.6875C250.578 94.0312 251.414 94.5859 252.117 95.3516C252.82 96.1172 253.367 97.1328 253.758 98.3984C254.148 99.6484 254.344 101.195 254.344 103.039V119H246.422V103.039C246.422 101.992 246.297 101.203 246.047 100.672C245.812 100.125 245.469 99.7578 245.016 99.5703C244.562 99.3672 244.023 99.2656 243.398 99.2656C242.648 99.2656 242 99.4219 241.453 99.7344C240.906 100.047 240.445 100.484 240.07 101.047C239.711 101.594 239.445 102.242 239.273 102.992C239.102 103.742 239.016 104.562 239.016 105.453ZM271.148 119.469C269.086 119.469 267.242 119.148 265.617 118.508C263.992 117.852 262.617 116.953 261.492 115.812C260.383 114.672 259.531 113.359 258.938 111.875C258.359 110.391 258.07 108.82 258.07 107.164V106.273C258.07 104.414 258.328 102.695 258.844 101.117C259.359 99.5234 260.125 98.1328 261.141 96.9453C262.156 95.7578 263.43 94.8359 264.961 94.1797C266.492 93.5078 268.273 93.1719 270.305 93.1719C272.102 93.1719 273.711 93.4609 275.133 94.0391C276.555 94.6172 277.758 95.4453 278.742 96.5234C279.742 97.6016 280.5 98.9062 281.016 100.438C281.547 101.969 281.812 103.688 281.812 105.594V108.805H261.094V103.859H274.102V103.25C274.117 102.406 273.969 101.688 273.656 101.094C273.359 100.5 272.922 100.047 272.344 99.7344C271.766 99.4219 271.062 99.2656 270.234 99.2656C269.375 99.2656 268.664 99.4531 268.102 99.8281C267.555 100.203 267.125 100.719 266.812 101.375C266.516 102.016 266.305 102.758 266.18 103.602C266.055 104.445 265.992 105.336 265.992 106.273V107.164C265.992 108.102 266.117 108.953 266.367 109.719C266.633 110.484 267.008 111.141 267.492 111.688C267.992 112.219 268.586 112.633 269.273 112.93C269.977 113.227 270.773 113.375 271.664 113.375C272.742 113.375 273.805 113.172 274.852 112.766C275.898 112.359 276.797 111.688 277.547 110.75L281.133 115.016C280.617 115.75 279.883 116.461 278.93 117.148C277.992 117.836 276.867 118.398 275.555 118.836C274.242 119.258 272.773 119.469 271.148 119.469ZM292.781 99.0547V119H284.883V93.6406H292.289L292.781 99.0547ZM291.844 105.453L289.992 105.5C289.992 103.562 290.227 101.836 290.695 100.32C291.164 98.7891 291.828 97.4922 292.688 96.4297C293.547 95.3672 294.57 94.5625 295.758 94.0156C296.961 93.4531 298.297 93.1719 299.766 93.1719C300.938 93.1719 302.008 93.3438 302.977 93.6875C303.961 94.0312 304.805 94.5859 305.508 95.3516C306.227 96.1172 306.773 97.1328 307.148 98.3984C307.539 99.6484 307.734 101.195 307.734 103.039V119H299.789V103.016C299.789 102 299.648 101.227 299.367 100.695C299.086 100.148 298.68 99.7734 298.148 99.5703C297.617 99.3672 296.969 99.2656 296.203 99.2656C295.391 99.2656 294.703 99.4219 294.141 99.7344C293.578 100.047 293.125 100.484 292.781 101.047C292.453 101.594 292.211 102.242 292.055 102.992C291.914 103.742 291.844 104.562 291.844 105.453ZM325.477 93.6406V99.125H310.195V93.6406H325.477ZM313.406 87.3359H321.305V110.727C321.305 111.398 321.383 111.922 321.539 112.297C321.695 112.656 321.961 112.914 322.336 113.07C322.727 113.211 323.242 113.281 323.883 113.281C324.336 113.281 324.711 113.273 325.008 113.258C325.305 113.227 325.586 113.188 325.852 113.141V118.789C325.18 119.008 324.477 119.172 323.742 119.281C323.008 119.406 322.227 119.469 321.398 119.469C319.711 119.469 318.266 119.203 317.062 118.672C315.875 118.141 314.969 117.305 314.344 116.164C313.719 115.023 313.406 113.539 313.406 111.711V87.3359ZM341.789 112.625V102.172C341.789 101.453 341.688 100.836 341.484 100.32C341.281 99.8047 340.961 99.4062 340.523 99.125C340.086 98.8281 339.5 98.6797 338.766 98.6797C338.172 98.6797 337.664 98.7812 337.242 98.9844C336.82 99.1875 336.5 99.4922 336.281 99.8984C336.062 100.305 335.953 100.82 335.953 101.445H328.055C328.055 100.273 328.312 99.1875 328.828 98.1875C329.359 97.1719 330.109 96.2891 331.078 95.5391C332.062 94.7891 333.234 94.2109 334.594 93.8047C335.969 93.3828 337.5 93.1719 339.188 93.1719C341.203 93.1719 343 93.5078 344.578 94.1797C346.172 94.8516 347.43 95.8594 348.352 97.2031C349.273 98.5312 349.734 100.203 349.734 102.219V112.602C349.734 114.258 349.828 115.516 350.016 116.375C350.203 117.219 350.469 117.961 350.812 118.602V119H342.891C342.516 118.219 342.234 117.266 342.047 116.141C341.875 115 341.789 113.828 341.789 112.625ZM342.75 103.508L342.797 107.727H339.305C338.57 107.727 337.945 107.828 337.43 108.031C336.93 108.234 336.523 108.516 336.211 108.875C335.914 109.219 335.695 109.609 335.555 110.047C335.43 110.484 335.367 110.945 335.367 111.43C335.367 111.898 335.477 112.32 335.695 112.695C335.93 113.055 336.242 113.336 336.633 113.539C337.023 113.742 337.461 113.844 337.945 113.844C338.82 113.844 339.562 113.68 340.172 113.352C340.797 113.008 341.273 112.594 341.602 112.109C341.93 111.625 342.094 111.172 342.094 110.75L343.828 113.984C343.516 114.609 343.156 115.242 342.75 115.883C342.359 116.523 341.867 117.117 341.273 117.664C340.695 118.195 339.984 118.633 339.141 118.977C338.297 119.305 337.273 119.469 336.07 119.469C334.508 119.469 333.07 119.148 331.758 118.508C330.461 117.867 329.422 116.977 328.641 115.836C327.859 114.68 327.469 113.352 327.469 111.852C327.469 110.539 327.703 109.367 328.172 108.336C328.656 107.305 329.383 106.43 330.352 105.711C331.32 104.992 332.555 104.445 334.055 104.07C335.555 103.695 337.32 103.508 339.352 103.508H342.75ZM367.477 93.6406V99.125H352.195V93.6406H367.477ZM355.406 87.3359H363.305V110.727C363.305 111.398 363.383 111.922 363.539 112.297C363.695 112.656 363.961 112.914 364.336 113.07C364.727 113.211 365.242 113.281 365.883 113.281C366.336 113.281 366.711 113.273 367.008 113.258C367.305 113.227 367.586 113.188 367.852 113.141V118.789C367.18 119.008 366.477 119.172 365.742 119.281C365.008 119.406 364.227 119.469 363.398 119.469C361.711 119.469 360.266 119.203 359.062 118.672C357.875 118.141 356.969 117.305 356.344 116.164C355.719 115.023 355.406 113.539 355.406 111.711V87.3359ZM378.961 93.6406V119H371.039V93.6406H378.961ZM370.57 87.1016C370.57 85.9766 370.977 85.0547 371.789 84.3359C372.602 83.6172 373.656 83.2578 374.953 83.2578C376.25 83.2578 377.305 83.6172 378.117 84.3359C378.93 85.0547 379.336 85.9766 379.336 87.1016C379.336 88.2266 378.93 89.1484 378.117 89.8672C377.305 90.5859 376.25 90.9453 374.953 90.9453C373.656 90.9453 372.602 90.5859 371.789 89.8672C370.977 89.1484 370.57 88.2266 370.57 87.1016ZM382.852 106.578V106.086C382.852 104.227 383.117 102.516 383.648 100.953C384.18 99.375 384.961 98.0078 385.992 96.8516C387.023 95.6953 388.297 94.7969 389.812 94.1562C391.328 93.5 393.078 93.1719 395.062 93.1719C397.062 93.1719 398.82 93.5 400.336 94.1562C401.867 94.7969 403.148 95.6953 404.18 96.8516C405.211 98.0078 405.992 99.375 406.523 100.953C407.055 102.516 407.32 104.227 407.32 106.086V106.578C407.32 108.422 407.055 110.133 406.523 111.711C405.992 113.273 405.211 114.641 404.18 115.812C403.148 116.969 401.875 117.867 400.359 118.508C398.844 119.148 397.094 119.469 395.109 119.469C393.125 119.469 391.367 119.148 389.836 118.508C388.305 117.867 387.023 116.969 385.992 115.812C384.961 114.641 384.18 113.273 383.648 111.711C383.117 110.133 382.852 108.422 382.852 106.578ZM390.75 106.086V106.578C390.75 107.531 390.82 108.422 390.961 109.25C391.102 110.078 391.336 110.805 391.664 111.43C391.992 112.039 392.438 112.516 393 112.859C393.562 113.203 394.266 113.375 395.109 113.375C395.938 113.375 396.625 113.203 397.172 112.859C397.734 112.516 398.18 112.039 398.508 111.43C398.836 110.805 399.07 110.078 399.211 109.25C399.352 108.422 399.422 107.531 399.422 106.578V106.086C399.422 105.164 399.352 104.297 399.211 103.484C399.07 102.656 398.836 101.93 398.508 101.305C398.18 100.664 397.734 100.164 397.172 99.8047C396.609 99.4453 395.906 99.2656 395.062 99.2656C394.234 99.2656 393.539 99.4453 392.977 99.8047C392.43 100.164 391.992 100.664 391.664 101.305C391.336 101.93 391.102 102.656 390.961 103.484C390.82 104.297 390.75 105.164 390.75 106.086ZM418.594 99.0547V119H410.695V93.6406H418.102L418.594 99.0547ZM417.656 105.453L415.805 105.5C415.805 103.562 416.039 101.836 416.508 100.32C416.977 98.7891 417.641 97.4922 418.5 96.4297C419.359 95.3672 420.383 94.5625 421.57 94.0156C422.773 93.4531 424.109 93.1719 425.578 93.1719C426.75 93.1719 427.82 93.3438 428.789 93.6875C429.773 94.0312 430.617 94.5859 431.32 95.3516C432.039 96.1172 432.586 97.1328 432.961 98.3984C433.352 99.6484 433.547 101.195 433.547 103.039V119H425.602V103.016C425.602 102 425.461 101.227 425.18 100.695C424.898 100.148 424.492 99.7734 423.961 99.5703C423.43 99.3672 422.781 99.2656 422.016 99.2656C421.203 99.2656 420.516 99.4219 419.953 99.7344C419.391 100.047 418.938 100.484 418.594 101.047C418.266 101.594 418.023 102.242 417.867 102.992C417.727 103.742 417.656 104.562 417.656 105.453Z" fill="black"/>
<path d="M1134 0H1348C1356.28 0 1363 6.71573 1363 15V148C1363 156.284 1356.28 163 1348 163H1134V0Z" fill="#2196F3"/>
<path d="M1280.07 47.5H1216.93L1214.5 49.9286V113.071L1216.93 115.5H1280.07L1282.5 113.071V49.9286L1280.07 47.5ZM1277.64 110.643H1233.93V100.929H1245.1C1246.56 103.843 1249.96 105.786 1253.36 105.786C1258.7 105.786 1263.07 101.414 1263.07 96.0714C1263.07 90.7286 1258.7 86.3571 1253.36 86.3571C1248.01 86.3571 1243.64 90.7286 1243.64 96.0714H1229.07V110.643H1219.36V52.3571H1229.07V63.5286C1226.16 64.9857 1224.21 68.3857 1224.21 71.7857C1224.21 77.1286 1228.59 81.5 1233.93 81.5C1239.27 81.5 1243.64 77.1286 1243.64 71.7857H1253.36C1253.36 77.1286 1257.73 81.5 1263.07 81.5C1268.41 81.5 1272.79 77.1286 1272.79 71.7857C1272.79 66.4429 1268.41 62.0714 1263.07 62.0714C1259.67 62.0714 1256.27 64.0143 1254.81 66.9286H1242.19C1240.73 64.0143 1237.33 62.0714 1233.93 62.0714V52.3571H1277.64V110.643ZM1248.5 96.0714C1248.5 93.1571 1250.44 91.2143 1253.36 91.2143C1256.27 91.2143 1258.21 93.1571 1258.21 96.0714C1258.21 98.9857 1256.27 100.929 1253.36 100.929C1250.44 100.929 1248.5 98.9857 1248.5 96.0714ZM1233.93 66.9286C1236.84 66.9286 1238.79 68.8714 1238.79 71.7857C1238.79 74.7 1236.84 76.6429 1233.93 76.6429C1231.01 76.6429 1229.07 74.7 1229.07 71.7857C1229.07 68.8714 1231.01 66.9286 1233.93 66.9286ZM1263.07 66.9286C1265.99 66.9286 1267.93 68.8714 1267.93 71.7857C1267.93 74.7 1265.99 76.6429 1263.07 76.6429C1260.16 76.6429 1258.21 74.7 1258.21 71.7857C1258.21 68.8714 1260.16 66.9286 1263.07 66.9286Z" fill="white"/>
</svg>
