<svg width="1363" height="163" viewBox="0 0 1363 163" fill="none" xmlns="http://www.w3.org/2000/svg">
<path d="M0 15C0 6.71573 6.71573 0 15 0H37V163H15C6.71573 163 0 156.284 0 148V15Z" fill="#424242"/>
<rect width="1097" height="163" transform="translate(37)" fill="#F0F0F0"/>
<path d="M101.906 53.9219L94.3945 51.2383V48.0859L104.602 52.375V54.6367L101.906 53.9219ZM94.3945 56.1719L101.918 53.4297L104.602 52.7852V55.0352L94.3945 59.3242V56.1719ZM121.781 56.5352C121.781 56.2305 121.734 55.957 121.641 55.7148C121.555 55.4648 121.391 55.2383 121.148 55.0352C120.906 54.8242 120.566 54.6172 120.129 54.4141C119.691 54.2109 119.125 54 118.43 53.7812C117.656 53.5312 116.922 53.25 116.227 52.9375C115.539 52.625 114.93 52.2617 114.398 51.8477C113.875 51.4258 113.461 50.9375 113.156 50.3828C112.859 49.8281 112.711 49.1836 112.711 48.4492C112.711 47.7383 112.867 47.0938 113.18 46.5156C113.492 45.9297 113.93 45.4297 114.492 45.0156C115.055 44.5938 115.719 44.2695 116.484 44.043C117.258 43.8164 118.105 43.7031 119.027 43.7031C120.285 43.7031 121.383 43.9297 122.32 44.3828C123.258 44.8359 123.984 45.457 124.5 46.2461C125.023 47.0352 125.285 47.9375 125.285 48.9531H121.793C121.793 48.4531 121.688 48.0156 121.477 47.6406C121.273 47.2578 120.961 46.957 120.539 46.7383C120.125 46.5195 119.602 46.4102 118.969 46.4102C118.359 46.4102 117.852 46.5039 117.445 46.6914C117.039 46.8711 116.734 47.1172 116.531 47.4297C116.328 47.7344 116.227 48.0781 116.227 48.4609C116.227 48.75 116.297 49.0117 116.438 49.2461C116.586 49.4805 116.805 49.6992 117.094 49.9023C117.383 50.1055 117.738 50.2969 118.16 50.4766C118.582 50.6562 119.07 50.832 119.625 51.0039C120.555 51.2852 121.371 51.6016 122.074 51.9531C122.785 52.3047 123.379 52.6992 123.855 53.1367C124.332 53.5742 124.691 54.0703 124.934 54.625C125.176 55.1797 125.297 55.8086 125.297 56.5117C125.297 57.2539 125.152 57.918 124.863 58.5039C124.574 59.0898 124.156 59.5859 123.609 59.9922C123.062 60.3984 122.41 60.707 121.652 60.918C120.895 61.1289 120.047 61.2344 119.109 61.2344C118.266 61.2344 117.434 61.125 116.613 60.9062C115.793 60.6797 115.047 60.3398 114.375 59.8867C113.711 59.4336 113.18 58.8555 112.781 58.1523C112.383 57.4492 112.184 56.6172 112.184 55.6562H115.711C115.711 56.1875 115.793 56.6367 115.957 57.0039C116.121 57.3711 116.352 57.668 116.648 57.8945C116.953 58.1211 117.312 58.2852 117.727 58.3867C118.148 58.4883 118.609 58.5391 119.109 58.5391C119.719 58.5391 120.219 58.4531 120.609 58.2812C121.008 58.1094 121.301 57.8711 121.488 57.5664C121.684 57.2617 121.781 56.918 121.781 56.5352ZM131.039 48.3203V61H127.652V48.3203H131.039ZM127.441 45.0156C127.441 44.5234 127.613 44.1172 127.957 43.7969C128.301 43.4766 128.762 43.3164 129.34 43.3164C129.91 43.3164 130.367 43.4766 130.711 43.7969C131.062 44.1172 131.238 44.5234 131.238 45.0156C131.238 45.5078 131.062 45.9141 130.711 46.2344C130.367 46.5547 129.91 46.7148 129.34 46.7148C128.762 46.7148 128.301 46.5547 127.957 46.2344C127.613 45.9141 127.441 45.5078 127.441 45.0156ZM141.855 48.3203H144.914V60.5781C144.914 61.7344 144.656 62.7148 144.141 63.5195C143.633 64.332 142.922 64.9453 142.008 65.3594C141.094 65.7812 140.031 65.9922 138.82 65.9922C138.289 65.9922 137.727 65.9219 137.133 65.7812C136.547 65.6406 135.984 65.4219 135.445 65.125C134.914 64.8281 134.469 64.4531 134.109 64L135.598 62.0078C135.988 62.4609 136.441 62.8125 136.957 63.0625C137.473 63.3203 138.043 63.4492 138.668 63.4492C139.277 63.4492 139.793 63.3359 140.215 63.1094C140.637 62.8906 140.961 62.5664 141.188 62.1367C141.414 61.7148 141.527 61.2031 141.527 60.6016V51.25L141.855 48.3203ZM133.324 54.8125V54.5664C133.324 53.5977 133.441 52.7188 133.676 51.9297C133.918 51.1328 134.258 50.4492 134.695 49.8789C135.141 49.3086 135.68 48.8672 136.312 48.5547C136.945 48.2422 137.66 48.0859 138.457 48.0859C139.301 48.0859 140.008 48.2422 140.578 48.5547C141.148 48.8672 141.617 49.3125 141.984 49.8906C142.352 50.4609 142.637 51.1367 142.84 51.918C143.051 52.6914 143.215 53.5391 143.332 54.4609V55C143.215 55.8828 143.039 56.7031 142.805 57.4609C142.57 58.2188 142.262 58.8828 141.879 59.4531C141.496 60.0156 141.02 60.4531 140.449 60.7656C139.887 61.0781 139.215 61.2344 138.434 61.2344C137.652 61.2344 136.945 61.0742 136.312 60.7539C135.688 60.4336 135.152 59.9844 134.707 59.4062C134.262 58.8281 133.918 58.1484 133.676 57.3672C133.441 56.5859 133.324 55.7344 133.324 54.8125ZM136.699 54.5664V54.8125C136.699 55.3359 136.75 55.8242 136.852 56.2773C136.953 56.7305 137.109 57.1328 137.32 57.4844C137.539 57.8281 137.809 58.0977 138.129 58.293C138.457 58.4805 138.844 58.5742 139.289 58.5742C139.906 58.5742 140.41 58.4453 140.801 58.1875C141.191 57.9219 141.484 57.5586 141.68 57.0977C141.875 56.6367 141.988 56.1055 142.02 55.5039V53.9688C142.004 53.4766 141.938 53.0352 141.82 52.6445C141.703 52.2461 141.539 51.9062 141.328 51.625C141.117 51.3438 140.844 51.125 140.508 50.9688C140.172 50.8125 139.773 50.7344 139.312 50.7344C138.867 50.7344 138.48 50.8359 138.152 51.0391C137.832 51.2344 137.562 51.5039 137.344 51.8477C137.133 52.1914 136.973 52.5977 136.863 53.0664C136.754 53.5273 136.699 54.0273 136.699 54.5664ZM150.844 51.0273V61H147.469V48.3203H150.633L150.844 51.0273ZM150.352 54.2148H149.438C149.438 53.2773 149.559 52.4336 149.801 51.6836C150.043 50.9258 150.383 50.2812 150.82 49.75C151.258 49.2109 151.777 48.8008 152.379 48.5195C152.988 48.2305 153.668 48.0859 154.418 48.0859C155.012 48.0859 155.555 48.1719 156.047 48.3438C156.539 48.5156 156.961 48.7891 157.312 49.1641C157.672 49.5391 157.945 50.0352 158.133 50.6523C158.328 51.2695 158.426 52.0234 158.426 52.9141V61H155.027V52.9023C155.027 52.3398 154.949 51.9023 154.793 51.5898C154.637 51.2773 154.406 51.0586 154.102 50.9336C153.805 50.8008 153.438 50.7344 153 50.7344C152.547 50.7344 152.152 50.8242 151.816 51.0039C151.488 51.1836 151.215 51.4336 150.996 51.7539C150.785 52.0664 150.625 52.4336 150.516 52.8555C150.406 53.2773 150.352 53.7305 150.352 54.2148ZM170.086 56.5352C170.086 56.2305 170.039 55.957 169.945 55.7148C169.859 55.4648 169.695 55.2383 169.453 55.0352C169.211 54.8242 168.871 54.6172 168.434 54.4141C167.996 54.2109 167.43 54 166.734 53.7812C165.961 53.5312 165.227 53.25 164.531 52.9375C163.844 52.625 163.234 52.2617 162.703 51.8477C162.18 51.4258 161.766 50.9375 161.461 50.3828C161.164 49.8281 161.016 49.1836 161.016 48.4492C161.016 47.7383 161.172 47.0938 161.484 46.5156C161.797 45.9297 162.234 45.4297 162.797 45.0156C163.359 44.5938 164.023 44.2695 164.789 44.043C165.562 43.8164 166.41 43.7031 167.332 43.7031C168.59 43.7031 169.688 43.9297 170.625 44.3828C171.562 44.8359 172.289 45.457 172.805 46.2461C173.328 47.0352 173.59 47.9375 173.59 48.9531H170.098C170.098 48.4531 169.992 48.0156 169.781 47.6406C169.578 47.2578 169.266 46.957 168.844 46.7383C168.43 46.5195 167.906 46.4102 167.273 46.4102C166.664 46.4102 166.156 46.5039 165.75 46.6914C165.344 46.8711 165.039 47.1172 164.836 47.4297C164.633 47.7344 164.531 48.0781 164.531 48.4609C164.531 48.75 164.602 49.0117 164.742 49.2461C164.891 49.4805 165.109 49.6992 165.398 49.9023C165.688 50.1055 166.043 50.2969 166.465 50.4766C166.887 50.6562 167.375 50.832 167.93 51.0039C168.859 51.2852 169.676 51.6016 170.379 51.9531C171.09 52.3047 171.684 52.6992 172.16 53.1367C172.637 53.5742 172.996 54.0703 173.238 54.625C173.48 55.1797 173.602 55.8086 173.602 56.5117C173.602 57.2539 173.457 57.918 173.168 58.5039C172.879 59.0898 172.461 59.5859 171.914 59.9922C171.367 60.3984 170.715 60.707 169.957 60.918C169.199 61.1289 168.352 61.2344 167.414 61.2344C166.57 61.2344 165.738 61.125 164.918 60.9062C164.098 60.6797 163.352 60.3398 162.68 59.8867C162.016 59.4336 161.484 58.8555 161.086 58.1523C160.688 57.4492 160.488 56.6172 160.488 55.6562H164.016C164.016 56.1875 164.098 56.6367 164.262 57.0039C164.426 57.3711 164.656 57.668 164.953 57.8945C165.258 58.1211 165.617 58.2852 166.031 58.3867C166.453 58.4883 166.914 58.5391 167.414 58.5391C168.023 58.5391 168.523 58.4531 168.914 58.2812C169.312 58.1094 169.605 57.8711 169.793 57.5664C169.988 57.2617 170.086 56.918 170.086 56.5352ZM179.156 50.7578V65.875H175.781V48.3203H178.91L179.156 50.7578ZM187.184 54.5195V54.7656C187.184 55.6875 187.074 56.543 186.855 57.332C186.645 58.1211 186.332 58.8086 185.918 59.3945C185.504 59.9727 184.988 60.4258 184.371 60.7539C183.762 61.0742 183.059 61.2344 182.262 61.2344C181.488 61.2344 180.816 61.0781 180.246 60.7656C179.676 60.4531 179.195 60.0156 178.805 59.4531C178.422 58.8828 178.113 58.2227 177.879 57.4727C177.645 56.7227 177.465 55.918 177.34 55.0586V54.4141C177.465 53.4922 177.645 52.6484 177.879 51.8828C178.113 51.1094 178.422 50.4414 178.805 49.8789C179.195 49.3086 179.672 48.8672 180.234 48.5547C180.805 48.2422 181.473 48.0859 182.238 48.0859C183.043 48.0859 183.75 48.2383 184.359 48.543C184.977 48.8477 185.492 49.2852 185.906 49.8555C186.328 50.4258 186.645 51.1055 186.855 51.8945C187.074 52.6836 187.184 53.5586 187.184 54.5195ZM183.797 54.7656V54.5195C183.797 53.9805 183.75 53.4844 183.656 53.0312C183.57 52.5703 183.43 52.168 183.234 51.8242C183.047 51.4805 182.797 51.2148 182.484 51.0273C182.18 50.832 181.809 50.7344 181.371 50.7344C180.91 50.7344 180.516 50.8086 180.188 50.957C179.867 51.1055 179.605 51.3203 179.402 51.6016C179.199 51.8828 179.047 52.2188 178.945 52.6094C178.844 53 178.781 53.4414 178.758 53.9336V55.5625C178.797 56.1406 178.906 56.6602 179.086 57.1211C179.266 57.5742 179.543 57.9336 179.918 58.1992C180.293 58.4648 180.785 58.5977 181.395 58.5977C181.84 58.5977 182.215 58.5 182.52 58.3047C182.824 58.1016 183.07 57.8242 183.258 57.4727C183.453 57.1211 183.59 56.7148 183.668 56.2539C183.754 55.793 183.797 55.2969 183.797 54.7656ZM195.117 61.2344C194.133 61.2344 193.25 61.0781 192.469 60.7656C191.688 60.4453 191.023 60.0039 190.477 59.4414C189.938 58.8789 189.523 58.2266 189.234 57.4844C188.945 56.7344 188.801 55.9375 188.801 55.0938V54.625C188.801 53.6641 188.938 52.7852 189.211 51.9883C189.484 51.1914 189.875 50.5 190.383 49.9141C190.898 49.3281 191.523 48.8789 192.258 48.5664C192.992 48.2461 193.82 48.0859 194.742 48.0859C195.641 48.0859 196.438 48.2344 197.133 48.5312C197.828 48.8281 198.41 49.25 198.879 49.7969C199.355 50.3438 199.715 51 199.957 51.7656C200.199 52.5234 200.32 53.3672 200.32 54.2969V55.7031H190.242V53.4531H197.004V53.1953C197.004 52.7266 196.918 52.3086 196.746 51.9414C196.582 51.5664 196.332 51.2695 195.996 51.0508C195.66 50.832 195.23 50.7227 194.707 50.7227C194.262 50.7227 193.879 50.8203 193.559 51.0156C193.238 51.2109 192.977 51.4844 192.773 51.8359C192.578 52.1875 192.43 52.6016 192.328 53.0781C192.234 53.5469 192.188 54.0625 192.188 54.625V55.0938C192.188 55.6016 192.258 56.0703 192.398 56.5C192.547 56.9297 192.754 57.3008 193.02 57.6133C193.293 57.9258 193.621 58.168 194.004 58.3398C194.395 58.5117 194.836 58.5977 195.328 58.5977C195.938 58.5977 196.504 58.4805 197.027 58.2461C197.559 58.0039 198.016 57.6406 198.398 57.1562L200.039 58.9375C199.773 59.3203 199.41 59.6875 198.949 60.0391C198.496 60.3906 197.949 60.6797 197.309 60.9062C196.668 61.125 195.938 61.2344 195.117 61.2344ZM209.086 58.1406V52.4922C209.086 52.0859 209.02 51.7383 208.887 51.4492C208.754 51.1523 208.547 50.9219 208.266 50.7578C207.992 50.5938 207.637 50.5117 207.199 50.5117C206.824 50.5117 206.5 50.5781 206.227 50.7109C205.953 50.8359 205.742 51.0195 205.594 51.2617C205.445 51.4961 205.371 51.7734 205.371 52.0938H201.996C201.996 51.5547 202.121 51.043 202.371 50.5586C202.621 50.0742 202.984 49.6484 203.461 49.2812C203.938 48.9062 204.504 48.6133 205.16 48.4023C205.824 48.1914 206.566 48.0859 207.387 48.0859C208.371 48.0859 209.246 48.25 210.012 48.5781C210.777 48.9062 211.379 49.3984 211.816 50.0547C212.262 50.7109 212.484 51.5312 212.484 52.5156V57.9414C212.484 58.6367 212.527 59.207 212.613 59.6523C212.699 60.0898 212.824 60.4727 212.988 60.8008V61H209.578C209.414 60.6562 209.289 60.2266 209.203 59.7109C209.125 59.1875 209.086 58.6641 209.086 58.1406ZM209.531 53.2773L209.555 55.1875H207.668C207.223 55.1875 206.836 55.2383 206.508 55.3398C206.18 55.4414 205.91 55.5859 205.699 55.7734C205.488 55.9531 205.332 56.1641 205.23 56.4062C205.137 56.6484 205.09 56.9141 205.09 57.2031C205.09 57.4922 205.156 57.7539 205.289 57.9883C205.422 58.2148 205.613 58.3945 205.863 58.5273C206.113 58.6523 206.406 58.7148 206.742 58.7148C207.25 58.7148 207.691 58.6133 208.066 58.4102C208.441 58.207 208.73 57.957 208.934 57.6602C209.145 57.3633 209.254 57.082 209.262 56.8164L210.152 58.2461C210.027 58.5664 209.855 58.8984 209.637 59.2422C209.426 59.5859 209.156 59.9102 208.828 60.2148C208.5 60.5117 208.105 60.7578 207.645 60.9531C207.184 61.1406 206.637 61.2344 206.004 61.2344C205.199 61.2344 204.469 61.0742 203.812 60.7539C203.164 60.4258 202.648 59.9766 202.266 59.4062C201.891 58.8281 201.703 58.1719 201.703 57.4375C201.703 56.7734 201.828 56.1836 202.078 55.668C202.328 55.1523 202.695 54.7188 203.18 54.3672C203.672 54.0078 204.285 53.7383 205.02 53.5586C205.754 53.3711 206.605 53.2773 207.574 53.2773H209.531ZM218.461 42.9883V61H215.086V42.9883H218.461ZM226.453 48.3203L220.945 54.6016L217.992 57.5898L216.762 55.1523L219.105 52.1758L222.398 48.3203H226.453ZM222.949 61L219.199 55.1406L221.531 53.1016L226.84 61H222.949Z" fill="#888888"/>
<path d="M118.594 98.4219V104.75H101.086V98.4219H118.594ZM103.828 84.875V119H95.6016V84.875H103.828ZM124.125 84.875V119H115.922V84.875H124.125ZM127.992 106.578V106.086C127.992 104.227 128.258 102.516 128.789 100.953C129.32 99.375 130.102 98.0078 131.133 96.8516C132.164 95.6953 133.438 94.7969 134.953 94.1562C136.469 93.5 138.219 93.1719 140.203 93.1719C142.203 93.1719 143.961 93.5 145.477 94.1562C147.008 94.7969 148.289 95.6953 149.32 96.8516C150.352 98.0078 151.133 99.375 151.664 100.953C152.195 102.516 152.461 104.227 152.461 106.086V106.578C152.461 108.422 152.195 110.133 151.664 111.711C151.133 113.273 150.352 114.641 149.32 115.812C148.289 116.969 147.016 117.867 145.5 118.508C143.984 119.148 142.234 119.469 140.25 119.469C138.266 119.469 136.508 119.148 134.977 118.508C133.445 117.867 132.164 116.969 131.133 115.812C130.102 114.641 129.32 113.273 128.789 111.711C128.258 110.133 127.992 108.422 127.992 106.578ZM135.891 106.086V106.578C135.891 107.531 135.961 108.422 136.102 109.25C136.242 110.078 136.477 110.805 136.805 111.43C137.133 112.039 137.578 112.516 138.141 112.859C138.703 113.203 139.406 113.375 140.25 113.375C141.078 113.375 141.766 113.203 142.312 112.859C142.875 112.516 143.32 112.039 143.648 111.43C143.977 110.805 144.211 110.078 144.352 109.25C144.492 108.422 144.562 107.531 144.562 106.578V106.086C144.562 105.164 144.492 104.297 144.352 103.484C144.211 102.656 143.977 101.93 143.648 101.305C143.32 100.664 142.875 100.164 142.312 99.8047C141.75 99.4453 141.047 99.2656 140.203 99.2656C139.375 99.2656 138.68 99.4453 138.117 99.8047C137.57 100.164 137.133 100.664 136.805 101.305C136.477 101.93 136.242 102.656 136.102 103.484C135.961 104.297 135.891 105.164 135.891 106.086ZM163.688 111.453L168.375 93.6406H173.32L171.562 102.57L166.922 119H162.961L163.688 111.453ZM161.836 93.6406L164.742 111.312L165.07 119H160.266L154.266 93.6406H161.836ZM177.492 110.938L180.422 93.6406H187.992L182.039 119H177.234L177.492 110.938ZM173.883 93.6406L178.617 111.406L179.344 119H175.336L170.789 102.617L169.102 93.6406H173.883ZM218.297 84.875V119H210.07V84.875H218.297ZM228.562 84.875V91.2266H200.039V84.875H228.562ZM225.773 106.578V106.086C225.773 104.227 226.039 102.516 226.57 100.953C227.102 99.375 227.883 98.0078 228.914 96.8516C229.945 95.6953 231.219 94.7969 232.734 94.1562C234.25 93.5 236 93.1719 237.984 93.1719C239.984 93.1719 241.742 93.5 243.258 94.1562C244.789 94.7969 246.07 95.6953 247.102 96.8516C248.133 98.0078 248.914 99.375 249.445 100.953C249.977 102.516 250.242 104.227 250.242 106.086V106.578C250.242 108.422 249.977 110.133 249.445 111.711C248.914 113.273 248.133 114.641 247.102 115.812C246.07 116.969 244.797 117.867 243.281 118.508C241.766 119.148 240.016 119.469 238.031 119.469C236.047 119.469 234.289 119.148 232.758 118.508C231.227 117.867 229.945 116.969 228.914 115.812C227.883 114.641 227.102 113.273 226.57 111.711C226.039 110.133 225.773 108.422 225.773 106.578ZM233.672 106.086V106.578C233.672 107.531 233.742 108.422 233.883 109.25C234.023 110.078 234.258 110.805 234.586 111.43C234.914 112.039 235.359 112.516 235.922 112.859C236.484 113.203 237.188 113.375 238.031 113.375C238.859 113.375 239.547 113.203 240.094 112.859C240.656 112.516 241.102 112.039 241.43 111.43C241.758 110.805 241.992 110.078 242.133 109.25C242.273 108.422 242.344 107.531 242.344 106.578V106.086C242.344 105.164 242.273 104.297 242.133 103.484C241.992 102.656 241.758 101.93 241.43 101.305C241.102 100.664 240.656 100.164 240.094 99.8047C239.531 99.4453 238.828 99.2656 237.984 99.2656C237.156 99.2656 236.461 99.4453 235.898 99.8047C235.352 100.164 234.914 100.664 234.586 101.305C234.258 101.93 234.023 102.656 233.883 103.484C233.742 104.297 233.672 105.164 233.672 106.086ZM266.086 84.875H279.516C282.141 84.875 284.422 85.2656 286.359 86.0469C288.297 86.8281 289.789 87.9844 290.836 89.5156C291.898 91.0469 292.43 92.9375 292.43 95.1875C292.43 97.1406 292.125 98.7734 291.516 100.086C290.906 101.398 290.055 102.484 288.961 103.344C287.883 104.188 286.625 104.883 285.188 105.43L282.492 106.953H271.219L271.172 100.602H279.516C280.562 100.602 281.43 100.414 282.117 100.039C282.805 99.6641 283.32 99.1328 283.664 98.4453C284.023 97.7422 284.203 96.9062 284.203 95.9375C284.203 94.9531 284.023 94.1094 283.664 93.4062C283.305 92.7031 282.773 92.1641 282.07 91.7891C281.383 91.4141 280.531 91.2266 279.516 91.2266H274.312V119H266.086V84.875ZM284.766 119L277.219 103.906L285.938 103.859L293.578 118.648V119H284.766ZM311.836 112.836V93.6406H319.758V119H312.352L311.836 112.836ZM312.586 107.68L314.648 107.633C314.648 109.336 314.445 110.914 314.039 112.367C313.633 113.805 313.031 115.055 312.234 116.117C311.453 117.18 310.484 118.008 309.328 118.602C308.188 119.18 306.867 119.469 305.367 119.469C304.117 119.469 302.969 119.297 301.922 118.953C300.891 118.594 300 118.039 299.25 117.289C298.5 116.523 297.914 115.547 297.492 114.359C297.086 113.156 296.883 111.719 296.883 110.047V93.6406H304.781V110.094C304.781 110.656 304.852 111.141 304.992 111.547C305.133 111.953 305.336 112.297 305.602 112.578C305.867 112.844 306.195 113.047 306.586 113.188C306.992 113.312 307.453 113.375 307.969 113.375C309.156 113.375 310.086 113.125 310.758 112.625C311.43 112.125 311.898 111.445 312.164 110.586C312.445 109.727 312.586 108.758 312.586 107.68ZM331.875 99.0547V119H323.977V93.6406H331.383L331.875 99.0547ZM330.938 105.453L329.086 105.5C329.086 103.562 329.32 101.836 329.789 100.32C330.258 98.7891 330.922 97.4922 331.781 96.4297C332.641 95.3672 333.664 94.5625 334.852 94.0156C336.055 93.4531 337.391 93.1719 338.859 93.1719C340.031 93.1719 341.102 93.3438 342.07 93.6875C343.055 94.0312 343.898 94.5859 344.602 95.3516C345.32 96.1172 345.867 97.1328 346.242 98.3984C346.633 99.6484 346.828 101.195 346.828 103.039V119H338.883V103.016C338.883 102 338.742 101.227 338.461 100.695C338.18 100.148 337.773 99.7734 337.242 99.5703C336.711 99.3672 336.062 99.2656 335.297 99.2656C334.484 99.2656 333.797 99.4219 333.234 99.7344C332.672 100.047 332.219 100.484 331.875 101.047C331.547 101.594 331.305 102.242 331.148 102.992C331.008 103.742 330.938 104.562 330.938 105.453ZM363.773 108.195H357.047C357.047 106.82 357.141 105.609 357.328 104.562C357.531 103.5 357.875 102.547 358.359 101.703C358.844 100.859 359.5 100.078 360.328 99.3594C361.062 98.75 361.695 98.1641 362.227 97.6016C362.758 97.0391 363.164 96.4688 363.445 95.8906C363.727 95.3125 363.867 94.6953 363.867 94.0391C363.867 93.2266 363.75 92.5625 363.516 92.0469C363.297 91.5312 362.961 91.1484 362.508 90.8984C362.07 90.6328 361.516 90.5 360.844 90.5C360.297 90.5 359.781 90.6328 359.297 90.8984C358.828 91.1641 358.445 91.5781 358.148 92.1406C357.852 92.6875 357.688 93.4141 357.656 94.3203H349.711C349.758 91.9922 350.273 90.1016 351.258 88.6484C352.258 87.1797 353.586 86.1094 355.242 85.4375C356.914 84.75 358.781 84.4062 360.844 84.4062C363.125 84.4062 365.086 84.7578 366.727 85.4609C368.367 86.1641 369.625 87.2109 370.5 88.6016C371.375 89.9766 371.812 91.6719 371.812 93.6875C371.812 95.0312 371.555 96.2031 371.039 97.2031C370.539 98.1875 369.859 99.1094 369 99.9688C368.156 100.812 367.211 101.719 366.164 102.688C365.258 103.484 364.641 104.297 364.312 105.125C363.984 105.938 363.805 106.961 363.773 108.195ZM356.086 115.32C356.086 114.195 356.492 113.258 357.305 112.508C358.117 111.742 359.172 111.359 360.469 111.359C361.766 111.359 362.82 111.742 363.633 112.508C364.445 113.258 364.852 114.195 364.852 115.32C364.852 116.445 364.445 117.391 363.633 118.156C362.82 118.906 361.766 119.281 360.469 119.281C359.172 119.281 358.117 118.906 357.305 118.156C356.492 117.391 356.086 116.445 356.086 115.32Z" fill="black"/>
<path d="M1134 0H1348C1356.28 0 1363 6.71573 1363 15V148C1363 156.284 1356.28 163 1348 163H1134V0Z" fill="#2196F3"/>
<path d="M1260.62 78.8847C1263.81 78.8847 1266.93 79.805 1269.59 81.5293C1272.25 83.2536 1274.32 85.7044 1275.54 88.5718C1276.76 91.4391 1277.08 94.5943 1276.46 97.6383C1275.84 100.682 1274.3 103.478 1272.04 105.673C1269.78 107.868 1266.9 109.362 1263.77 109.968C1260.63 110.573 1257.39 110.262 1254.43 109.075C1251.48 107.887 1248.96 105.876 1247.18 103.295C1245.41 100.714 1244.46 97.6806 1244.46 94.5769C1244.46 90.4151 1246.16 86.4237 1249.19 83.4808C1252.22 80.538 1256.33 78.8847 1260.62 78.8847ZM1260.62 73.6539C1256.36 73.6539 1252.19 74.881 1248.65 77.1801C1245.11 79.4791 1242.35 82.7469 1240.72 86.57C1239.09 90.3932 1238.66 94.6001 1239.49 98.6588C1240.32 102.717 1242.37 106.446 1245.39 109.372C1248.4 112.298 1252.24 114.291 1256.41 115.098C1260.59 115.905 1264.92 115.491 1268.86 113.907C1272.79 112.324 1276.16 109.642 1278.52 106.201C1280.89 102.76 1282.15 98.7151 1282.15 94.5769C1282.15 89.0278 1279.88 83.706 1275.85 79.7821C1271.81 75.8583 1266.33 73.6539 1260.62 73.6539Z" fill="white"/>
<path d="M1274.08 47.5H1220.23C1218.8 47.5 1217.43 48.0511 1216.42 49.0321C1215.41 50.013 1214.85 51.3435 1214.85 52.7307V105.038C1214.85 106.426 1215.41 107.756 1216.42 108.737C1217.43 109.718 1218.8 110.269 1220.23 110.269H1231V105.038H1220.23V68.423H1279.46V52.7307C1279.46 51.3435 1278.89 50.013 1277.88 49.0321C1276.87 48.0511 1275.5 47.5 1274.08 47.5ZM1220.23 63.1922V52.7307H1274.08V63.1922H1220.23Z" fill="white"/>
<path d="M1255.23 86.731V102.423L1268.69 94.5771L1255.23 86.731Z" fill="white"/>
</svg>
